<svg xmlns="http://www.w3.org/2000/svg" viewBox="0 0 750 500"><g id="freepik--background-complete--inject-107"><path d="M62.23,223c-.6,0-.66-1.21,0-1.3,2.87-.36,5.73-2.92,8.59-3.3s5.68-.69,8.21-2C83.33,214.28,86,210,90.39,208c7.73-3.61,15.69-2.06,23.22,1.11a26.47,26.47,0,0,0,14.21,2.09c4.4-.56,8.68-1.77,13.05-2.4a25.93,25.93,0,0,1,11.72.57c3.93,1.27,7.31,3.73,11,5.51,4.87,2.35,9.68,1.95,14.92,2.1,3.78.11,11.68,2.5,11.68,5.05C190.19,223.7,69.73,223,62.23,223Z" style="fill:#ebebeb"></path><path d="M219.93,84.7c-7,0-124.38.77-131.75.54-.53,0-.82-.8-.29-1.06,4.65-2.3,9.93-1.84,14.76-3.47,2.84-1,4.59-2.82,6.56-4.95a13.58,13.58,0,0,1,6.11-4,12.93,12.93,0,0,1,6.65-.21c2.38.57,4.45,1.93,6.73,2.79,5.64,2.13,11.12.11,15.14-4.06,3.32-3.44,6.59-6.69,11.1-8.54a14.71,14.71,0,0,1,11.76-.16C171,63.54,174,67.46,178,69.82c4.79,2.8,10.53,2.14,15.82,3s9.37,5.31,14,7.88a10,10,0,0,0,5.06,1.57c1,0,2.06-.31,3.09-.44,1.6-.2,3.11-.15,4.19,1.18C220.44,83.32,220.39,84.7,219.93,84.7Z" style="fill:#ebebeb"></path><path d="M502.55,132.8c-5.09,0-90.8.57-96.19.4-.39,0-.59-.59-.21-.78,3.4-1.68,7.25-1.34,10.78-2.53,2.07-.7,3.35-2.06,4.79-3.61a10,10,0,0,1,4.46-2.92,9.43,9.43,0,0,1,4.86-.15,41.85,41.85,0,0,1,4.9,2c4.12,1.55,8.12.08,11.06-3,2.43-2.51,4.81-4.88,8.11-6.23a10.72,10.72,0,0,1,8.58-.12c3.15,1.42,5.3,4.29,8.26,6,3.5,2,7.69,1.56,11.55,2.18s6.84,3.87,10.23,5.75a7.18,7.18,0,0,0,3.69,1.14c.76,0,1.51-.22,2.26-.31a3.06,3.06,0,0,1,3.06.86C502.93,131.8,502.89,132.8,502.55,132.8Z" style="fill:#ebebeb"></path><path d="M531.2,72.86H385.66c-.59,0-.8-.63-.21-.9,5.21-2.45,11.05-1.82,16.44-3.51,3.18-1,5.16-3,7.4-5.34a15,15,0,0,1,6.86-4.28,14.21,14.21,0,0,1,7.38-.08c2.63.68,4.9,2.24,7.4,3.25,6.2,2.49,12.33.37,16.89-4.16,3.76-3.74,7.45-7.26,12.5-9.21a16.32,16.32,0,0,1,13.05.09c4.73,2.26,7.92,6.68,12.35,9.39,5.25,3.22,11.63,2.61,17.48,3.67s10.73,3.59,15.82,6.54a10.93,10.93,0,0,0,5.58,1.86c1.15,0,2.29-.29,3.43-.41,1.78-.18,3.46-.1,4.62,1.41C532.94,71.54,534.62,72.86,531.2,72.86Z" style="fill:#ebebeb"></path><path d="M686.12,127H540.58c-.58,0-.8-.63-.21-.9,5.21-2.45,11-1.82,16.45-3.51,3.17-1,5.15-3,7.39-5.34a15,15,0,0,1,6.87-4.28,14.21,14.21,0,0,1,7.38-.08c2.63.68,4.89,2.24,7.39,3.25,6.2,2.49,12.33.37,16.89-4.16,3.76-3.74,7.46-7.26,12.51-9.21a16.29,16.29,0,0,1,13,.09c4.73,2.26,7.92,6.68,12.35,9.39,5.25,3.22,11.63,2.61,17.48,3.67s10.73,3.59,15.82,6.55a11,11,0,0,0,5.58,1.85,33.08,33.08,0,0,0,3.43-.41c1.78-.18,3.46-.1,4.62,1.41C687.86,125.63,689.54,127,686.12,127Z" style="fill:#ebebeb"></path><path d="M330.93,154.38c-.1.29-135.09,0-133.39,0,.78,0-1.18-1.16-.42-1.53,4.4-2.18,9.2-2.25,14-2.69a21.51,21.51,0,0,0,8.17-2c2.55-1.33,4.13-3.64,5.94-5.78a25.33,25.33,0,0,1,23.05-8.73c9.6,1.5,17.16,8.81,26.78,10.16,5.78.81,11.24-1.43,16.88-2.22a20.7,20.7,0,0,1,12.68,2.32c3.05,1.51,5.86,2.78,9.3,3,2.64.19,5.3-.12,7.95-.14a17.77,17.77,0,0,1,11.69,4.67C334,151.86,335.34,154.38,330.93,154.38Z" style="fill:#ebebeb"></path></g><g id="freepik--Floor--inject-107"><path d="M51,472.46c207.59-.61,440.47-.61,648.06,0-207.59.62-440.47.61-648.06,0Z" style="fill:#263238"></path></g><g id="freepik--Sun--inject-107"><path d="M692.09,262.31c0,.77,0,1.55,0,2.32H534.15c0-.77,0-1.55,0-2.32a79,79,0,0,1,158,0Z" style="fill:#90CAF9"></path><path d="M692.09,262.31c0,.77,0,1.55,0,2.32H534.15c0-.77,0-1.55,0-2.32a79,79,0,0,1,158,0Z" style="fill:#fff;opacity:0.6000000000000001"></path><path d="M692.6,211.2c-2.54,0-65.92-.44-83.82-.44-1.26,0,.33-2.17,1-2.32a60.47,60.47,0,0,1,6.73-.74,22,22,0,0,0,6.42-1.61,23.74,23.74,0,0,1,5.42-1.9c3.69-.58,6.93,1.42,10.39,2.3a7.75,7.75,0,0,0,6.28-.86c1.6-1,3.06-2.11,4.73-2.95a25.89,25.89,0,0,1,20.71-1,23.33,23.33,0,0,1,4.53,2.32c1.69,1.11,3.15,2.52,4.84,3.62,3.76,2.43,8.4,1.64,12.49,3C692.57,210.77,692.82,211.2,692.6,211.2Z" style="fill:#fff"></path><path d="M568,231.3c-2.54,0-65.93-.44-83.83-.44-1.25,0,.33-2.17,1-2.32a60.47,60.47,0,0,1,6.73-.74,21.86,21.86,0,0,0,6.42-1.61,23.91,23.91,0,0,1,5.42-1.9c3.69-.58,6.93,1.42,10.39,2.31a7.85,7.85,0,0,0,6.29-.86c1.6-1,3.05-2.11,4.72-3a25.93,25.93,0,0,1,20.71-.95,23.9,23.9,0,0,1,4.53,2.32c1.69,1.11,3.15,2.53,4.85,3.62,3.75,2.43,8.39,1.64,12.49,3C567.93,230.88,568.19,231.3,568,231.3Z" style="fill:#fff"></path><path d="M594.2,250.91c-.07.18-85.29,0-84.21,0,.49,0-.75-.73-.27-1,2.78-1.38,5.81-1.42,8.83-1.69a13.5,13.5,0,0,0,5.16-1.26c1.61-.84,2.61-2.3,3.75-3.65A16,16,0,0,1,542,237.83c6.06.95,10.84,5.57,16.91,6.41,3.64.52,7.09-.9,10.66-1.39a13,13,0,0,1,8,1.46,15.31,15.31,0,0,0,5.87,1.91c1.67.11,3.35-.08,5-.1a11.27,11.27,0,0,1,7.38,2.95C596.12,249.31,597,250.91,594.2,250.91Z" style="fill:#fff"></path></g><g id="freepik--Water--inject-107"><path d="M51,264.76c207.59-.62,440.47-.62,648.06,0-207.59.61-440.47.61-648.06,0Z" style="fill:#c7c7c7"></path><path d="M63.6,320.74c127.06-.61,269.6-.61,396.66,0-127.06.62-269.6.62-396.66,0Z" style="fill:#c7c7c7"></path><path d="M143.58,396.6c127.07-.61,269.61-.61,396.67,0-127.07.62-269.6.62-396.67,0Z" style="fill:#c7c7c7"></path><path d="M89.29,365.68c73.12-.65,155.15-.66,228.27,0-73.12.65-155.15.65-228.27,0Z" style="fill:#c7c7c7"></path><path d="M409.36,423c73.12-.65,155.15-.66,228.26,0-73.11.66-155.14.65-228.26,0Z" style="fill:#c7c7c7"></path><path d="M535.48,279c39.5-.66,83.42-.64,123,0-39.54.65-83.45.67-123,0Z" style="fill:#c7c7c7"></path><path d="M155,344.39c32.24-.66,68.09-.64,100.35,0-32.27.65-68.11.67-100.35,0Z" style="fill:#c7c7c7"></path><path d="M367.61,344.39c99.87-.61,211.9-.61,311.77,0-99.87.62-211.9.62-311.77,0Z" style="fill:#c7c7c7"></path></g><g id="freepik--Cruise--inject-107"><path d="M183.54,158.86V128.2c0-11.06-12.93-24.27-14.94-32.32s1.58-23.78-8-30.85S144,63.13,134.24,53.36s-30.72-23.13-44.8-9.19,6,33,8.86,37.07.12,13.62,8.18,21.51c5.62,5.51,17.09,3.25,24,8.87,5.3,4.35,7.13,15.29,15.46,19s17.54,2.24,22,6.44c10.86,10.3,10.12,18.69,10.12,21.77Z" style="fill:#dbdbdb;opacity:0.5"></path><path d="M138.7,182.82V157.73c0-9.8-11.46-21.5-13.24-28.63s1.4-21.06-7.12-27.32S103.66,100.1,95,91.44,67.83,71,55.36,83.3s5.3,29.22,7.84,32.83.11,12.06,7.25,19.05c5,4.88,15.14,2.88,21.22,7.86,4.7,3.86,6.31,13.54,13.69,16.85s15.54,2,19.46,5.71c9.62,9.12,9,14.49,9,17.22Z" style="fill:#dbdbdb;opacity:0.5"></path><path d="M118.39,216V178.69s9.37-10.58,17.07-11.94a42.65,42.65,0,0,1,15.57.6v28Z" style="fill:#455a64"></path><path d="M151,167.35v28L118.39,216V178.69s9.37-10.58,17.07-11.94A42.62,42.62,0,0,1,151,167.35Z" style="fill:#455a64"></path><path d="M151,170.89v2.8c-3.4-.66-10.7-1.71-15.91,0-4,1.27-13,8.63-16.73,11.87V182c3.87-3.26,11.73-9.56,15.9-10.89C139.85,169.27,147.21,170.2,151,170.89Z" style="fill:#90CAF9"></path><path d="M162.23,188.06V150.73s9.37-10.58,17.08-11.94a42.49,42.49,0,0,1,15.56.61v27.95Z" style="fill:#455a64"></path><path d="M194.87,139.4v28l-32.63,20.7V150.74s9.36-10.58,17.06-11.94A42.37,42.37,0,0,1,194.87,139.4Z" style="fill:#455a64"></path><path d="M194.87,142.94v2.79c-3.39-.65-10.7-1.7-15.91,0-4,1.26-13,8.63-16.72,11.87V154c3.87-3.26,11.72-9.56,15.89-10.9C183.69,141.32,191.05,142.24,194.87,142.94Z" style="fill:#90CAF9"></path><polygon points="304.72 127.7 316.52 86.22 326.91 80.02 321.34 126.2 304.72 127.7" style="fill:#ebebeb"></polygon><path d="M377.07,144.85l-5.85-11.06s-51.15-43.5-118.7-34.28L171.12,165l-4.58,15.38-49,34.9-6.5-5L87.2,229,86,235.82l-2.72,4.84-.76,15.1-5,10.13L75.41,288.1,396.7,161.43S390.57,152.89,377.07,144.85ZM90.62,234.52v-3.73l18.66-14.33L112,219Z" style="fill:#fff"></path><path d="M377.07,144.85l-5.85-11a172.11,172.11,0,0,0-56-28.89,148.31,148.31,0,0,0-62.66-5.32c.22-.13-81.59,65.75-81.27,65.44,0,.05-4.57,15.38-4.59,15.43s-49,34.9-49.11,35l-.12-.09-6.51-5h.26c.08-.14-24.27,19.2-23.78,18.61l-1.21,6.8v0l0,0-2.71,4.84c0-.48-.7,15.09-.73,15v.05l0,0-5,10.13,0-.08-2.14,22.2c-1.85-.27,321.5-126.57,321.06-126.71a73.83,73.83,0,0,0-19.63-16.56Zm0,0c7.34,4.45,14.29,9.8,19.65,16.57-.27-.2-322,127.9-321.55,126.66,0-.09,2.09-22.23,2.14-22.3l5-10.12c-.08.46.77-15.1.75-15v-.06l0-.05,2.71-4.83,0,.07L87,229c-.16-.15,24-18.75,24-18.86l.13-.1.13.1,6.5,5c-1.27.34,49.11-34.92,48.75-34.87-.31.45,4.63-15.38,4.52-15.29,0-.11,81.46-65.43,81.52-65.52a148.39,148.39,0,0,1,62.74,5.4c20.15,6.24,39.43,15.84,56,29l5.84,11.06Z" style="fill:#263238"></path><path d="M90.62,234.52l-.06-3.73v0l0,0c6.19-4.93,12.46-9.77,18.72-14.6l.15.14,2.71,2.58.22.2-.24.17C105.92,223.74,97,230,90.62,234.52Zm0,0c6.23-4.62,15.06-11.2,21.23-15.68l0,.37-2.71-2.57.31,0c-6.23,4.76-12.46,9.51-18.77,14.18,0-.25,0,3.73,0,3.68Z" style="fill:#263238"></path><path d="M385.73,165.75a324.29,324.29,0,0,0-127.45-22.94c1.09-.43-21.54,11.17-21.32,11.08l.19-.3-.11,8.14-.17-.22,15.35,4.64L236.74,162l-.17,0v-.19l-.11-8.14v-.2l.18-.1L258,141.8l.11-.05h.12a292.83,292.83,0,0,1,127.49,24Z" style="fill:#263238"></path><path d="M258.26,142.28c5.16-3.53,15.39-10.52,20.58-14A225.19,225.19,0,0,1,354.44,140c14.45,5.1,28.36,12.25,40,22.34-16-12.72-35.3-20.51-55-25.57A270.33,270.33,0,0,0,279.18,129c-5.17,3.34-15.7,10-20.92,13.27Z" style="fill:#263238"></path><path d="M84.71,246.7c60-42.77,127.76-90.18,188.51-131.92C213.2,157.55,145.45,205,84.71,246.7Z" style="fill:#263238"></path><polygon points="174.09 167.74 184.79 159.79 184.79 172.62 170.47 182.81 174.09 167.74" style="fill:#37474f"></polygon><polygon points="188.19 157.27 208.09 142.48 208.09 156.04 188.19 170.21 188.19 157.27" style="fill:#37474f"></polygon><polygon points="211.49 139.95 233.78 123.4 233.78 137.77 211.49 153.63 211.49 139.95" style="fill:#37474f"></polygon><polygon points="237.17 120.88 257.06 106.1 257.06 121.21 237.17 135.36 237.17 120.88" style="fill:#37474f"></polygon><path d="M283.88,105.82v11.27c-3.49,0-7.05,0-10.66.19l-2.4,1.79a98.32,98.32,0,0,0-10.35,1.42V105.72A144.36,144.36,0,0,1,283.88,105.82Z" style="fill:#37474f"></path><path d="M310.88,110.11v9.57a170.34,170.34,0,0,0-23.61-2.51V106.1A178.36,178.36,0,0,1,310.88,110.11Z" style="fill:#37474f"></path><path d="M338.42,119.12v7.69a179.71,179.71,0,0,0-24.13-6.5V111A178.3,178.3,0,0,1,338.42,119.12Z" style="fill:#37474f"></path><path d="M357.92,128.72v6.09c-4.49-2.15-9.89-4.51-16.09-6.78V120.6A179.91,179.91,0,0,1,357.92,128.72Z" style="fill:#37474f"></path><path d="M372.94,143.17h0a112.54,112.54,0,0,0-11.57-6.65v-5.8c2.8,1.68,5.64,3.46,8.46,5.37Z" style="fill:#37474f"></path><path d="M87.35,246.7c.67-.41,1.91-1.21,3.64-2.36v5.82l-3.64,2.33Z" style="fill:#37474f"></path><path d="M91.85,243.77c1.14-.75,2.46-1.64,3.94-2.63v6l-3.94,2.53Z" style="fill:#37474f"></path><path d="M96.69,240.54l4.79-3.26v6.16c-1.74,1.1-3.33,2.14-4.79,3.07Z" style="fill:#37474f"></path><path d="M102.58,236.56l5.08-3.48v6.41q-2.7,1.71-5.08,3.26Z" style="fill:#37474f"></path><path d="M108.75,232.34l5.77-3.94v6.7l-5.77,3.69Z" style="fill:#37474f"></path><path d="M115.61,227.65c1.7-1.16,3.46-2.35,5.26-3.6v7l-5.26,3.38Z" style="fill:#37474f"></path><path d="M122,223.3c1.84-1.25,3.74-2.54,5.66-3.87v7.27L122,230.34Z" style="fill:#37474f"></path><path d="M128.71,218.68l6-4.1v7.61l-6,3.83Z" style="fill:#37474f"></path><path d="M135.8,213.82c2.23-1.53,4.5-3.08,6.79-4.67v8c-2.29,1.48-4.56,2.92-6.79,4.35Z" style="fill:#37474f"></path><path d="M143.66,208.42l6.92-4.76V212l-6.92,4.41Z" style="fill:#37474f"></path><path d="M159,197.85v8.81l-7.35,4.69v-8.44C154.11,201.23,156.55,199.54,159,197.85Z" style="fill:#37474f"></path><path d="M167.69,191.88v9.26c-2.39,1.5-4.79,3-7.18,4.56v-8.88Z" style="fill:#37474f"></path><path d="M177,185.49v9.73l-7.78,4.95v-9.31C171.79,189.05,174.41,187.26,177,185.49Z" style="fill:#37474f"></path><path d="M186.34,179v10.22q-3.74,2.35-7.56,4.81l-.23.15V184.4l.23-.17C181.35,182.47,183.85,180.73,186.34,179Z" style="fill:#37474f"></path><path d="M196.45,172.05v10.77l-8.26,5.24V177.74C191,175.78,193.78,173.89,196.45,172.05Z" style="fill:#37474f"></path><path d="M208.09,164v11.44l-9.59,6.08V170.63Z" style="fill:#37474f"></path><path d="M220.1,155.7v12.15l-9.95,6.3V162.58Z" style="fill:#37474f"></path><path d="M233.78,146.25v13.1c-2.57,1.56-6.52,4-11.52,7.16v-12.3Z" style="fill:#37474f"></path><path d="M83.59,259.84c.6-.35,1.64-1,3.12-1.88v4.7l-3.33,1.79Z" style="fill:#37474f"></path><path d="M87.35,257.56,91,255.37v5l-3.64,2Z" style="fill:#37474f"></path><path d="M91.85,254.85c1.2-.74,2.52-1.53,3.94-2.38v5.3c-1.42.78-2.74,1.48-3.94,2.13Z" style="fill:#37474f"></path><path d="M96.69,251.92l4.79-2.9v5.68c-1.7.91-3.29,1.79-4.79,2.59Z" style="fill:#37474f"></path><path d="M102.58,248.36l5.08-3.08v6.09l-5.08,2.74Z" style="fill:#37474f"></path><path d="M108.75,244.61l5.77-3.47v6.54q-3,1.59-5.77,3.11Z" style="fill:#37474f"></path><path d="M115.61,240.47l5.26-3.18v7l-5.26,2.84Z" style="fill:#37474f"></path><path d="M122,236.64c1.86-1.12,3.74-2.27,5.66-3.42v7.37c-1.92,1-3.82,2.06-5.66,3.07Z" style="fill:#37474f"></path><path d="M128.71,232.55l6-3.63v7.83l-6,3.25Z" style="fill:#37474f"></path><path d="M135.8,228.27l6.79-4.11v8.33l-6.79,3.67Z" style="fill:#37474f"></path><path d="M143.66,223.5l6.92-4.18v8.84l-6.92,3.75Z" style="fill:#37474f"></path><path d="M159,214.23v9.33l-7.35,4v-8.9Z" style="fill:#37474f"></path><path d="M167.69,209v9.86c-2.38,1.31-4.79,2.61-7.18,3.91v-9.43C162.9,211.87,165.31,210.44,167.69,209Z" style="fill:#37474f"></path><path d="M177,203.36v10.43L169.19,218v-10C171.8,206.5,174.41,204.93,177,203.36Z" style="fill:#37474f"></path><path d="M186.34,197.7v11c-2.49,1.36-5,2.74-7.56,4.13l-.23.12V202.42a1.42,1.42,0,0,1,.23-.14Z" style="fill:#37474f"></path><path d="M196.45,191.6v11.53c-2.67,1.47-5.44,3-8.26,4.54V196.58Z" style="fill:#37474f"></path><path d="M208.09,184.56v12.13c-3,1.69-6.25,3.47-9.59,5.31V190.35C201.86,188.31,205.08,186.37,208.09,184.56Z" style="fill:#37474f"></path><path d="M220.1,177.28V190c-3,1.7-6.35,3.56-9.95,5.56V183.31Z" style="fill:#37474f"></path><path d="M233.78,169v13.11c-2.54,1.54-6.49,3.83-11.52,6.66V176Z" style="fill:#37474f"></path><path d="M83.59,268.73c.6-.36,1.64-1,3.12-1.77v4.74c-2.16,1.05-3.33,1.64-3.33,1.64Z" style="fill:#37474f"></path><path d="M87.35,266.6c1-.57,2.26-1.24,3.64-2v5l-3.64,1.78Z" style="fill:#37474f"></path><path d="M91.85,264.16,95.79,262v5.19l-3.94,1.94Z" style="fill:#37474f"></path><path d="M96.69,261.54l4.79-2.54v5.43l-4.79,2.35Z" style="fill:#37474f"></path><path d="M102.58,258.41l5.08-2.7v5.7l-5.08,2.49Z" style="fill:#37474f"></path><path d="M108.75,255.12l5.77-3.05v6l-5.77,2.81Z" style="fill:#37474f"></path><path d="M115.61,251.5c1.7-.92,3.46-1.84,5.26-2.78V255c-1.8.87-3.56,1.71-5.26,2.55Z" style="fill:#37474f"></path><path d="M122,248.13l5.66-3v6.56L122,254.46Z" style="fill:#37474f"></path><path d="M128.71,244.56c2-1,4-2.09,6-3.15v6.87l-6,2.9Z" style="fill:#37474f"></path><path d="M135.8,240.84c2.23-1.19,4.5-2.38,6.79-3.58v7.23l-6.79,3.26Z" style="fill:#37474f"></path><path d="M143.66,236.69l6.92-3.64v7.61c-2.33,1.1-4.64,2.21-6.92,3.31Z" style="fill:#37474f"></path><path d="M159,228.62v8c-2.47,1.17-4.91,2.35-7.35,3.52v-7.64Z" style="fill:#37474f"></path><path d="M167.69,224.08v8.41l-7.18,3.41v-8.06C162.9,226.58,165.31,225.31,167.69,224.08Z" style="fill:#37474f"></path><path d="M177,219.2v8.92l-7.78,3.66v-8.49Z" style="fill:#37474f"></path><path d="M186.34,214.29v9.42l-7.56,3.56-.23.11v-9l.23-.12Z" style="fill:#37474f"></path><path d="M196.45,209v10l-8.26,3.81v-9.52Z" style="fill:#37474f"></path><path d="M208.09,202.9v10.82c-3.09,1.39-6.3,2.85-9.59,4.36V207.91C201.86,206.17,205.08,204.48,208.09,202.9Z" style="fill:#37474f"></path><path d="M220.1,196.61v11.77c-3.15,1.37-6.46,2.85-9.95,4.41v-11Z" style="fill:#37474f"></path><path d="M233.78,189.47v13.1c-3.4,1.38-7.27,3-11.52,4.87V195.51Z" style="fill:#37474f"></path><path d="M250.32,181v14.79c-3.83,1.55-8.21,3.4-13,5.49V187.82Z" style="fill:#37474f"></path><path d="M269.43,171v17.06c-4.42,1.79-9.46,3.92-15,6.34V178.89C263.8,174,269.43,171,269.43,171Z" style="fill:#37474f"></path><path d="M84.71,255.61C134.05,224.23,186.25,191,236.8,161.73c-48.94,29.86-103,64.21-152.09,93.88Z" style="fill:#263238"></path><path d="M239.2,152.33l-.17-11v-.09l.07-.05c8.5-6.06,25.57-18.2,34.1-24.2,11.25-.94,22.68.14,33.86,1.68,33.21,4.93,65.44,19.17,89.64,42.72C371.85,138.83,339.93,125,306.86,120a183.09,183.09,0,0,0-33-2.06l-17.26,11.8L239.3,141.51l.07-.14-.17,11Z" style="fill:#263238"></path><path d="M326.45,166.31l3.3,8.65c-14,.53-24.41,1.52-24.41,1.52L301,167.56A214.17,214.17,0,0,1,326.45,166.31Z" style="fill:#37474f"></path><path d="M351.39,167.81l1.46,6.87c-6.45-.13-12.86,0-18.78.13l-3.21-8.44C337.15,166.52,344.08,167,351.39,167.81Z" style="fill:#37474f"></path><path d="M370.77,171.65,362.28,175c-1.73-.09-3.48-.16-5.24-.21l-1.36-6.44c4.9.67,9.94,1.54,15,2.65Z" style="fill:#37474f"></path><path d="M321.67,153.71l2.86,7.52a260,260,0,0,0-26.75-.38l-4.24-8.75C303.56,152.18,313,152.77,321.67,153.71Z" style="fill:#37474f"></path><path d="M349.34,158.07l1.31,6.23c-6.46-1.1-13.7-2.07-21.61-2.72l-2.79-7.35C334.69,155.26,342.42,156.61,349.34,158.07Z" style="fill:#37474f"></path><path d="M370.12,163.4l.41,5.18c-4.32-1.14-9.55-2.37-15.53-3.5l-1.28-6C360,160.48,365.44,162,370.12,163.4Z" style="fill:#37474f"></path><path d="M381.72,167.33l-6.49,2.56-.52-.15-.38-5C377.21,165.69,379.67,166.57,381.72,167.33Z" style="fill:#37474f"></path><path d="M284.64,139.46s60.73,1.91,101.18,24.35l3.46-3.4s-36.7-27.65-107-27.65Z" style="fill:#37474f"></path><path d="M414.36,320.74H74.81a52.81,52.81,0,0,1-7.26-33.54S189.05,215.92,326.26,177c139.5-39.53,223.65-30.52,227-30.52s11.79,11.18,11.18,13.9-32.67,26.87-42,34.28C504.53,208.92,414.36,283.72,414.36,320.74Z" style="fill:#455a64"></path><path d="M412.87,320.74H74.81a52.81,52.81,0,0,1-7.26-33.54s80.55-47.26,184.56-85.81l2.32,0S128,271.82,131.71,291.48C137.24,320.51,348.52,320.74,412.87,320.74Z" style="opacity:0.1"></path><path d="M563.32,156.94c-9-1.31-18.44-1.06-27.55-1.17-164.21,4.62-324.42,58.06-468.52,135.17a.15.15,0,0,1,0-.09c75.88-42.34,156.24-76.9,239.66-101.76,74.3-21.84,151.12-37.47,228.76-39.72,7.4-.12,14.8-.13,22.22.32A36.44,36.44,0,0,1,563.32,156.94Z" style="fill:#90CAF9"></path><path d="M321.14,265.41l8.11,23.73a2,2,0,0,0,2,1.36l33.29-2.23a2,2,0,0,0,1.77-2.61l-7.69-23.84a2,2,0,0,0-2-1.38l-33.71,2.32A2,2,0,0,0,321.14,265.41Z" style="fill:#263238"></path><path d="M293.21,211.72l3.88,6.35a2.74,2.74,0,0,0,3,1.24l18.18-4.26A2.75,2.75,0,0,0,320,211l-4.12-7a2.74,2.74,0,0,0-3.09-1.25l-17.94,4.91A2.75,2.75,0,0,0,293.21,211.72Z" style="fill:#263238"></path><path d="M325.16,201.87l5.08,8.56a2.07,2.07,0,0,0,2.23,1l21.67-4.8a2.06,2.06,0,0,0,1.35-3l-5.33-9.34a2.1,2.1,0,0,0-2.33-1l-21.4,5.58A2.07,2.07,0,0,0,325.16,201.87Z" style="fill:#263238"></path><polygon points="87.76 296.95 88.82 300.23 86.22 301.02 85.04 297.85 87.76 296.95" style="fill:#263238"></polygon><polygon points="91.57 295.69 92.68 299.06 89.8 299.93 88.72 296.63 91.57 295.69" style="fill:#263238"></polygon><polygon points="95.61 294.36 96.74 297.83 93.66 298.78 92.56 295.37 95.61 294.36" style="fill:#263238"></polygon><polygon points="99.86 292.94 101.02 296.54 97.71 297.55 96.58 294.03 99.86 292.94" style="fill:#263238"></polygon><polygon points="104.28 291.48 105.48 295.19 102.02 296.24 100.83 292.63 104.28 291.48" style="fill:#263238"></polygon><polygon points="108.81 290 110.05 293.81 106.46 294.89 105.25 291.17 108.81 290" style="fill:#263238"></polygon><polygon points="113.59 288.42 114.86 292.36 111.01 293.51 109.77 289.67 113.59 288.42" style="fill:#263238"></polygon><polygon points="118.81 286.68 120.12 290.76 115.83 292.06 114.56 288.09 118.81 286.68" style="fill:#263238"></polygon><polygon points="124.21 284.9 125.56 289.11 121.1 290.46 119.78 286.37 124.21 284.9" style="fill:#263238"></polygon><polygon points="129.77 283.06 131.19 287.41 126.56 288.81 125.19 284.57 129.77 283.06" style="fill:#263238"></polygon><polygon points="135.84 281.05 137.28 285.55 132.16 287.11 130.74 282.74 135.84 281.05" style="fill:#263238"></polygon><polygon points="142.06 279 143.57 283.66 138.27 285.27 136.81 280.74 142.06 279" style="fill:#263238"></polygon><polygon points="148.42 276.89 149.98 281.71 144.54 283.36 143.04 278.68 148.42 276.89" style="fill:#263238"></polygon><polygon points="154.84 274.77 156.45 279.76 150.96 281.42 149.39 276.57 154.84 274.77" style="fill:#263238"></polygon><polygon points="161.12 272.7 162.78 277.84 157.42 279.46 155.81 274.45 161.12 272.7" style="fill:#263238"></polygon><polygon points="166.87 270.79 168.59 276.08 163.76 277.54 162.08 272.37 166.87 270.79" style="fill:#263238"></polygon><polygon points="175.16 274.09 169.57 275.78 167.85 270.47 173.4 268.63 175.16 274.09" style="fill:#263238"></polygon><polygon points="180.57 266.26 182.4 271.89 176.14 273.79 174.37 268.32 180.57 266.26" style="fill:#263238"></polygon><polygon points="189.76 269.66 183.38 271.59 181.54 265.95 187.88 263.85 189.76 269.66" style="fill:#263238"></polygon><polygon points="198.37 267.05 190.74 269.37 190.72 269.37 188.84 263.54 196.94 260.85 198.37 267.05" style="fill:#263238"></polygon></g><g id="freepik--Port--inject-107"><rect x="50.97" y="461.15" width="648.07" height="11.31" style="fill:#90CAF9"></rect><rect x="50.97" y="461.15" width="648.07" height="11.31" style="opacity:0.4"></rect><polygon points="135.96 450.76 98.24 450.76 94.24 472.46 139.96 472.46 135.96 450.76" style="fill:#90CAF9"></polygon><polygon points="135.96 450.76 98.24 450.76 94.24 472.46 139.96 472.46 135.96 450.76" style="opacity:0.30000000000000004"></polygon><polygon points="98.24 450.76 97.47 454.91 136.34 452.83 135.96 450.76 98.24 450.76" style="opacity:0.1"></polygon><path d="M145.06,432.52s-2.91,18.24-9.1,18.24H98.24c-6.2,0-9.11-18.24-9.11-18.24Z" style="fill:#90CAF9"></path><path d="M145.06,432.52s-2.91,18.24-9.1,18.24H98.24c-6.2,0-9.11-18.24-9.11-18.24Z" style="opacity:0.30000000000000004"></path><path d="M145.06,432.52s-.12.76-.36,2L90,436.9c-.6-2.53-.9-4.38-.9-4.38Z" style="opacity:0.1"></path><rect x="86" y="427.19" width="62.19" height="5.33" style="fill:#90CAF9"></rect><rect x="86" y="427.19" width="62.19" height="5.33" style="opacity:0.30000000000000004"></rect><polygon points="307.89 450.76 270.17 450.76 266.17 472.46 311.89 472.46 307.89 450.76" style="fill:#90CAF9"></polygon><polygon points="307.89 450.76 270.17 450.76 266.17 472.46 311.89 472.46 307.89 450.76" style="opacity:0.30000000000000004"></polygon><polygon points="270.17 450.76 269.41 454.91 308.27 452.83 307.89 450.76 270.17 450.76" style="opacity:0.1"></polygon><path d="M317,432.52s-2.91,18.24-9.1,18.24H270.18c-6.2,0-9.11-18.24-9.11-18.24Z" style="fill:#90CAF9"></path><path d="M317,432.52s-2.91,18.24-9.1,18.24H270.18c-6.2,0-9.11-18.24-9.11-18.24Z" style="opacity:0.30000000000000004"></path><path d="M317,432.52s-.12.76-.36,2L262,436.9c-.6-2.53-.9-4.38-.9-4.38Z" style="opacity:0.1"></path><rect x="257.94" y="427.19" width="62.19" height="5.33" style="fill:#90CAF9"></rect><rect x="257.94" y="427.19" width="62.19" height="5.33" style="opacity:0.30000000000000004"></rect><polygon points="479.83 450.76 442.11 450.76 438.11 472.46 483.83 472.46 479.83 450.76" style="fill:#90CAF9"></polygon><polygon points="479.83 450.76 442.11 450.76 438.11 472.46 483.83 472.46 479.83 450.76" style="opacity:0.30000000000000004"></polygon><polygon points="442.11 450.76 441.34 454.91 480.21 452.83 479.83 450.76 442.11 450.76" style="opacity:0.1"></polygon><path d="M488.93,432.52s-2.91,18.24-9.1,18.24H442.11c-6.2,0-9.11-18.24-9.11-18.24Z" style="fill:#90CAF9"></path><path d="M488.93,432.52s-2.91,18.24-9.1,18.24H442.11c-6.2,0-9.11-18.24-9.11-18.24Z" style="opacity:0.30000000000000004"></path><path d="M488.93,432.52s-.12.76-.36,2L433.9,436.9c-.6-2.53-.9-4.38-.9-4.38Z" style="opacity:0.1"></path><rect x="429.88" y="427.19" width="62.19" height="5.33" style="fill:#90CAF9"></rect><rect x="429.88" y="427.19" width="62.19" height="5.33" style="opacity:0.30000000000000004"></rect><polygon points="651.76 450.76 614.04 450.76 610.04 472.46 655.76 472.46 651.76 450.76" style="fill:#90CAF9"></polygon><polygon points="651.76 450.76 614.04 450.76 610.04 472.46 655.76 472.46 651.76 450.76" style="opacity:0.30000000000000004"></polygon><polygon points="614.04 450.76 613.28 454.91 652.15 452.83 651.76 450.76 614.04 450.76" style="opacity:0.1"></polygon><path d="M660.87,432.52s-2.91,18.24-9.1,18.24H614.05c-6.2,0-9.11-18.24-9.11-18.24Z" style="fill:#90CAF9"></path><path d="M660.87,432.52s-2.91,18.24-9.1,18.24H614.05c-6.2,0-9.11-18.24-9.11-18.24Z" style="opacity:0.30000000000000004"></path><path d="M660.87,432.52s-.12.76-.36,2l-54.67,2.42c-.6-2.53-.9-4.38-.9-4.38Z" style="opacity:0.1"></path><rect x="601.81" y="427.19" width="62.19" height="5.33" style="fill:#90CAF9"></rect><rect x="601.81" y="427.19" width="62.19" height="5.33" style="opacity:0.30000000000000004"></rect></g><g id="freepik--Lifesaver--inject-107"><polygon points="102.2 312.03 103.29 472.46 132.4 472.46 134.57 312.03 102.2 312.03" style="fill:#90CAF9"></polygon><polygon points="102.2 312.03 103.29 472.46 132.4 472.46 134.57 312.03 102.2 312.03" style="opacity:0.4"></polygon><polygon points="123.08 312.03 123.08 472.46 132.4 472.46 134.57 312.03 123.08 312.03" style="opacity:0.1"></polygon><path d="M117.1,328.45a63.8,63.8,0,1,0,63.8,63.8A63.79,63.79,0,0,0,117.1,328.45Zm0,96.84a33,33,0,1,1,33-33A33,33,0,0,1,117.1,425.29Z" style="fill:#ebebeb"></path><path d="M140.43,332.86l-11.25,28.63a33.17,33.17,0,0,0-24.17,0L93.76,332.85a64,64,0,0,1,46.67,0Z" style="fill:#90CAF9"></path><path d="M84.05,392.25a33,33,0,0,0,2.28,12.08L57.69,415.58a64,64,0,0,1,0-46.67l28.63,11.25A33,33,0,0,0,84.05,392.25Z" style="fill:#90CAF9"></path><path d="M140.42,451.65a64,64,0,0,1-46.67,0L105,423a33.17,33.17,0,0,0,24.17,0Z" style="fill:#90CAF9"></path><path d="M180.89,392.25a63.49,63.49,0,0,1-4.41,23.34l-28.63-11.25a33.17,33.17,0,0,0,0-24.17l28.64-11.25A63.68,63.68,0,0,1,180.89,392.25Z" style="fill:#90CAF9"></path><path d="M118.46,335.59c21.52-2,42.76,12.31,50.23,32.4a47.15,47.15,0,0,1,3,20.81A59.7,59.7,0,0,0,161.51,360a57.78,57.78,0,0,0-43-24.44Z" style="fill:#fff"></path><path d="M99.12,424.31C86.5,421.44,77.4,408.44,78,395.65a26.06,26.06,0,0,1,3.34-12.1,36.86,36.86,0,0,0,3.11,26.12,37.93,37.93,0,0,0,14.69,14.64Z" style="fill:#fff"></path></g><g id="freepik--character-2--inject-107"><path d="M581.84,471.68c-2.12.69-64.86-.1-67.15-1.59-.88-.56,3.53-59.59,3.53-59.59l40.54.41-4.31,39.49s23.06,10.68,25.41,12.59S584,471,581.84,471.68Z" style="fill:#ad6359"></path><path d="M581.84,471.68c-2.12.69-64.87-.1-67.15-1.6-.41-.24.31-12.92,1.2-26.5H555.2l-.75,6.82s23.07,10.67,25.41,12.59S584,471,581.84,471.68Z" style="fill:#fff"></path><path d="M582.53,472.54c-2.23.73-65.59.14-68-1.43-.93-.58.41-21.47.41-21.59h39.19l0,.7s24.35,11.16,26.82,13.17S584.77,471.82,582.53,472.54Z" style="fill:#90CAF9"></path><path d="M582.36,470.06c-10.76-.37-54.22-.82-64.89-.36-.09,0-.09.06,0,.06,10.66.6,54.12.7,64.89.48C582.59,470.23,582.59,470.07,582.36,470.06Z" style="fill:#263238"></path><path d="M558,450.75c-4.23-.83-9.42-.23-12.68,2.76-.13.11,0,.29.18.25A59.48,59.48,0,0,1,558,451.28.27.27,0,0,0,558,450.75Z" style="fill:#263238"></path><path d="M561.05,452.62c-4.23-.83-9.42-.23-12.69,2.76-.13.12,0,.29.18.25A59.48,59.48,0,0,1,561,453.15.27.27,0,0,0,561.05,452.62Z" style="fill:#263238"></path><path d="M564.09,454.49c-4.23-.83-9.42-.23-12.69,2.76-.13.12,0,.3.18.25A60.07,60.07,0,0,1,564.07,455,.27.27,0,0,0,564.09,454.49Z" style="fill:#263238"></path><path d="M574.31,460a9,9,0,0,0-6.75,2.73,8.77,8.77,0,0,0-2.54,6c0,.07.13.07.14,0a10.45,10.45,0,0,1,9.15-8.6A.07.07,0,0,0,574.31,460Z" style="fill:#263238"></path><path d="M521.62,459.52c-5.06,0-5.07,7.87,0,7.87S526.69,459.52,521.62,459.52Z" style="fill:#fff"></path><path d="M558.55,448.73H514.9s7.29-101.23,7-102.59c-.44-2.28-3-12.6-6.45-26.08-1.07-4.22-2.23-8.75-3.44-13.44-3.25-12.68-6.84-26.54-10-38.61-4.69-18.07-8.35-32.11-8.35-32.11h37s4.31,13.67,9.74,31.45c8.85,28.91,20.69,68.68,21.85,78.35C563.73,357.41,558.55,448.73,558.55,448.73Z" style="fill:#455a64"></path><path d="M556.52,440.77c-6.66-.14-4.74-.19-11.4-.25-3.26,0-24.66-.22-27.71.28-.06,0-.06.13,0,.14,3.05.5,24.45.31,27.71.28,6.66-.06,4.74-.12,11.4-.25C556.64,441,556.64,440.77,556.52,440.77Z" style="fill:#263238"></path><path d="M500.45,240.92l6.78,23.9,6.62,23.94c2.21,8,4.33,16,6.46,24s4.21,16,6.17,24.07c.47,2,.95,4,1.35,6.08.11.5.18,1,.27,1.55a8.71,8.71,0,0,1,0,.87l-.06.78-5.79,88.17,0,.26-.49-.3,5.35-88.2.06-.78c0-.24,0-.45,0-.68-.1-.5-.16-1-.27-1.5-.4-2-.89-4-1.36-6C521.69,321,517.36,305,513.16,289Z" style="fill:#263238"></path><path d="M529.83,235.9c-2.57,19.87-11.86,52.88-15.43,79.91-8.35-32.75-20.68-79.91-20.68-79.91Z" style="fill:#263238"></path><path d="M440.66,471.37c2.15.66,54.85.9,57.13-.63.88-.56,1.19-9.45,1.26-20.2v-.33c0-2.22,5.11-39.44,5.11-39.44l-39.81.81-4.61,39.1,0,.67s-14.86,9.31-17.2,11.26S438.52,470.71,440.66,471.37Z" style="fill:#ad6359"></path><path d="M499.79,443.58c-.45,3.56-.74,6.1-.74,6.63v.34c-.07,10.74-.38,19.62-1.26,20.19-2.28,1.53-55,1.3-57.13.63s-.41-6.83,1.92-8.76,17.19-11.27,17.19-11.27l0-.67.84-7.09Z" style="fill:#fff"></path><path d="M438.06,472.54c2.24.73,58.92.14,61.33-1.43.93-.58-.41-21.47-.41-21.59H459.79l0,.7s-17.67,11.16-20.15,13.17S435.82,471.82,438.06,472.54Z" style="fill:#90CAF9"></path><path d="M438.23,470.06c10.77-.37,47.55-.82,58.22-.36.09,0,.09.06,0,.06-10.66.6-47.45.7-58.22.48C438,470.23,438,470.07,438.23,470.06Z" style="fill:#263238"></path><path d="M463,450.83c5.37-1.48,12-1.47,16.41,1.48.17.11,0,.34-.21.31A84.91,84.91,0,0,0,463,451.43C462.63,451.44,462.59,450.94,463,450.83Z" style="fill:#263238"></path><path d="M459.19,453.34c5.36-1.48,12.05-1.48,16.4,1.47.17.12,0,.34-.21.31a83.94,83.94,0,0,0-16.13-1.18A.3.3,0,0,1,459.19,453.34Z" style="fill:#263238"></path><path d="M455.4,455.84c5.37-1.48,12.05-1.47,16.41,1.48.17.11,0,.33-.21.31a84.1,84.1,0,0,0-16.14-1.19C455.06,456.45,455,456,455.4,455.84Z" style="fill:#263238"></path><path d="M443.06,462.55a14.65,14.65,0,0,1,11.78-.81c3.13,1.22,6.41,3.49,8,6.95,0,.1-.14.19-.2.1-4.09-6-12.7-8.73-19.45-6A.12.12,0,0,1,443.06,462.55Z" style="fill:#263238"></path><path d="M495.5,457.51c4,0,4,7.87,0,7.87S491.53,457.51,495.5,457.51Z" style="fill:#fff"></path><path d="M529.83,235.9s-5.61,34.19-6,35.29c0,0-2.09,1-5.85,2.73L502.65,448.55l-43.86.18L482,235.9Z" style="fill:#455a64"></path><path d="M501.15,440.75c-6.7-.11-4.78-.17-11.48-.21-3.28,0-24.83-.11-27.89.41a.07.07,0,0,0,0,.13c3.07.5,24.61.22,27.89.17,6.7-.09,4.78-.14,11.48-.3C501.27,440.94,501.27,440.75,501.15,440.75Z" style="fill:#263238"></path><path d="M525.33,270.86a76,76,0,0,0-11.93,5.55c-.15.09,0,.32.11.25,4-1.73,8.12-3.38,12-5.32A.26.26,0,0,0,525.33,270.86Z" style="fill:#263238"></path><path d="M526.6,243.29c0-.14-.25-.17-.25,0,0,4.77-.27,9-.67,13.42-.19,2.07-1.86,13.51-5.44,12.68-.6-.14-.91-.73-1-1.64a14.55,14.55,0,0,1,.48-3.51c.4-2.39.72-4.79.92-7.21a65.09,65.09,0,0,0-.14-13.53.12.12,0,0,0-.23,0,124.09,124.09,0,0,1-1.1,18.68c-.44,3-1.94,7.45,1.17,7.91s5.22-7,5.6-9.09A68.15,68.15,0,0,0,526.6,243.29Z" style="fill:#263238"></path><path d="M520.33,269.67a21.5,21.5,0,0,0-.81,2.38,5.39,5.39,0,0,0-.33,1.94c0,.13.18.14.25.06a6.86,6.86,0,0,0,.83-1.9c.27-.73.56-1.46.81-2.2A.4.4,0,0,0,520.33,269.67Z" style="fill:#263238"></path><polygon points="517.09 278.3 514.74 298.37 512.29 318.42 507.25 358.5 498.29 436.77 506.32 358.38 511.58 318.33 514.29 298.31 517.09 278.3" style="fill:#263238"></polygon><path d="M484.75,265.81c3.39-.34,6.88-.29,10-1.81s5.22-4.57,6.86-7.61a25.47,25.47,0,0,0,2.25-6c0-.09.17-.07.17,0a16.93,16.93,0,0,1-1.39,5.63,25,25,0,0,1-2.69,5,12.09,12.09,0,0,1-3.87,3.63,13.43,13.43,0,0,1-5.09,1.54,28.67,28.67,0,0,1-6.28,0A.2.2,0,0,1,484.75,265.81Z" style="fill:#263238"></path><path d="M517.06,191.61c11.9,18.9,25.65,34.21,32.44,33.29a144.82,144.82,0,0,0,38.88-11.47c3.55-1.72-6.85-24.89-10.91-23.8-9.53,2.56-26.61,9.69-27.68,9.24-4-1.69-11.64-7.58-22.58-14.5C513.69,175.81,510.08,180.53,517.06,191.61Z" style="fill:#ad6359"></path><path d="M529.09,208.64a183,183,0,0,1-12-17c-6.58-10.44-3.76-15.25,7.93-8.58Z" style="opacity:0.1"></path><path d="M598.23,210.56c-4.77,3.28-17.15,6.19-20.41,5.75s-8.9-21.34-6.87-24,19-12.52,24.86-12.1S603.17,207.15,598.23,210.56Z" style="fill:#ad6359"></path><polygon points="564.59 229.38 562.98 228.19 617 155.66 616.23 150.41 618.21 150.13 619.1 156.19 618.85 156.52 564.59 229.38" style="fill:#455a64"></polygon><polygon points="613.38 156.2 622.74 151.04 621.55 145.89 612.2 151.09 613.38 156.2" style="fill:#37474f"></polygon><path d="M625.15,122.9,598.3,137a2,2,0,0,0-1.11,2.21l3.64,16.28a1.36,1.36,0,0,0,1.83,1.08l26.86-14.12a2,2,0,0,0,1.11-2.21L627,124A1.37,1.37,0,0,0,625.15,122.9Z" style="fill:#37474f"></path><path d="M625.6,124.82l-26.86,14.12a1.94,1.94,0,0,0-1.1,2.21l3.63,16.28a1.37,1.37,0,0,0,1.84,1.08L630,144.39a2,2,0,0,0,1.1-2.21l-3.63-16.28A1.37,1.37,0,0,0,625.6,124.82Z" style="fill:#455a64"></path><path d="M625.45,130.29c-.61.51-1.23.31-1.39-.47a2.68,2.68,0,0,1,.82-2.34.78.78,0,0,1,1.39.47A2.68,2.68,0,0,1,625.45,130.29Z" style="fill:#263238"></path><polygon points="612.2 154.88 623.13 148.85 617.93 125.94 607.01 132.02 612.2 154.88" style="fill:#263238"></polygon><rect x="555.81" y="221" width="23.83" height="5" transform="translate(49.37 545.32) rotate(-53.32)" style="fill:#263238"></rect><path d="M586.6,181.35c-1.26,2.8,2.76,2.69,2.76,2.69s-5.74,1.56-5.93,5,4.68,2.95,5,2.93c-.3.09-5.54,1.66-5.38,5.08s5,2.41,5.3,2.34c-.26.17-3.67,2.48-3,5,1.23,4.42,10.12-1.25,13.71-.29,0,0-.92,6.27-.91,6.46,0,0,8.57-5.22,9.59-10.14a3.2,3.2,0,0,0-1.77-3.6s3-1.38,2.9-4.08c0-1.39-2.27-2.58-2.27-2.58a4,4,0,0,0,2.13-3.6c-.15-1.91-2.37-2.81-2.37-2.81s1.69-2.18.9-4.09C605.77,175.81,589.31,175.36,586.6,181.35Z" style="fill:#ad6359"></path><path d="M606.11,183.56a0,0,0,0,0,0-.09,28.59,28.59,0,0,0-17,.55c-.18.06-.15.37.06.34A58.07,58.07,0,0,1,606.11,183.56Z" style="fill:#263238"></path><path d="M606.77,190.13c.06,0,.07-.09,0-.11a26.72,26.72,0,0,0-18.49,1.75c-.2.1-.28.39,0,.29C592.25,190.36,601.48,189.54,606.77,190.13Z" style="fill:#263238"></path><path d="M588.05,199.69c5.66-2.66,11.59-3.23,17.77-2.95.08,0,.08-.11,0-.13-3-1-6.94-.73-10-.3a16.43,16.43,0,0,0-7.86,3.18C587.87,199.56,587.93,199.74,588.05,199.69Z" style="fill:#263238"></path><path d="M589.36,184a18.32,18.32,0,0,0-3.09,1.49,6.24,6.24,0,0,0-2.37,2.27,2.09,2.09,0,0,0-.18,1.47,3,3,0,0,0,.75,1.32,3.68,3.68,0,0,0,2.86.89l2.51-.2-2.29,1.06a10.42,10.42,0,0,0-2.78,1.84,3.7,3.7,0,0,0-1.33,2.7,2.1,2.1,0,0,0,1.61,2.1,6.31,6.31,0,0,0,3.19-.12l2.88-.76-2.46,1.66a9.59,9.59,0,0,0-1.87,1.62,4,4,0,0,0-1,2.05,1.89,1.89,0,0,0,.81,1.82,4.15,4.15,0,0,0,2.31.39,33.65,33.65,0,0,0,5.09-.93c.85-.2,1.7-.4,2.57-.55a6.21,6.21,0,0,1,2.61-.06,6.58,6.58,0,0,0-2.56.3c-.84.21-1.67.47-2.51.73a28.13,28.13,0,0,1-5.14,1.23,4.91,4.91,0,0,1-2.79-.38,2.67,2.67,0,0,1-1.3-2.64,4.8,4.8,0,0,1,1.23-2.58,10.52,10.52,0,0,1,2-1.84l.42.9a7.35,7.35,0,0,1-3.76.18,3.08,3.08,0,0,1-1.72-1.15,3.36,3.36,0,0,1-.62-1.94,4.66,4.66,0,0,1,1.68-3.42,10.94,10.94,0,0,1,3.09-2l.22.86a4.36,4.36,0,0,1-3.47-1.28,3.65,3.65,0,0,1-.84-1.69,2.62,2.62,0,0,1,.31-1.86,6.51,6.51,0,0,1,2.7-2.28A15.5,15.5,0,0,1,589.36,184Z" style="fill:#263238"></path><path d="M573.54,190.1s13.11-20.79,18.73-11.69c1.67,2.71,5.29,15.81,2.67,16.59-3.38,1-5.91-4.18-7-7.69,0,0-3.46,7.7-9.54,6.89A6.12,6.12,0,0,1,573.54,190.1Z" style="fill:#ad6359"></path><path d="M591.75,177.69a12.76,12.76,0,0,1,1.88,3.24,27.62,27.62,0,0,1,1.24,3.55,42.44,42.44,0,0,1,1.49,7.39,7.15,7.15,0,0,1-.07,2,2.72,2.72,0,0,1-.44,1,1.89,1.89,0,0,1-.45.44,1.8,1.8,0,0,1-.56.27,3.14,3.14,0,0,1-2.19-.18,6.08,6.08,0,0,1-1.66-1.2,11.41,11.41,0,0,1-2.13-3.25,25.85,25.85,0,0,1-1.32-3.56l.81,0a15.19,15.19,0,0,1-1.51,2.45A13.88,13.88,0,0,1,584.9,192a9.36,9.36,0,0,1-2.4,1.54,7.3,7.3,0,0,1-2.74.66,8.42,8.42,0,0,0,2.6-.93,9.81,9.81,0,0,0,2.17-1.67,13.57,13.57,0,0,0,1.73-2.12,14.46,14.46,0,0,0,1.29-2.38l.43-1,.39,1.07a26.44,26.44,0,0,0,1.38,3.39,10.93,10.93,0,0,0,2,2.94,3.08,3.08,0,0,0,2.8,1.13c.83-.18.91-1.55.84-2.71a35.64,35.64,0,0,0-.45-3.65c-.19-1.22-.41-2.44-.68-3.64A23.77,23.77,0,0,0,591.75,177.69Z" style="fill:#263238"></path><path d="M538.63,255,478,257.63c-.84-1,5.31-49,22.66-73.72,5.66-8.06,16.31-4.41,20.22.35C527.67,192.45,539.46,254.14,538.63,255Z" style="fill:#90CAF9"></path><path d="M518.58,190.89c-3.3,1-9.34-3.82-11.84-7.84a69.58,69.58,0,0,1,.26-7c.08-2.24.12-4.73,0-7,0-.46,14.47,2.68,14.47,2.68a36.71,36.71,0,0,0-.89,8.82,4.52,4.52,0,0,0,.15.93l0,.16C521.15,183.4,521.77,189.94,518.58,190.89Z" style="fill:#ad6359"></path><path d="M507.88,169.06c.87,3.82,3.79,13,11.42,12.74a9.06,9.06,0,0,0,1.46-.16.65.65,0,0,0,0-.16,5.2,5.2,0,0,1-.15-.92,36.19,36.19,0,0,1,.89-8.83S511,169.46,507.88,169.06Z" style="fill:#263238"></path><path d="M502,154.68c-.41,5.29,5.39,19,9.62,21.42,6.13,3.49,14.59,2.07,17.16-4.94,2.48-6.8-5.39-24.55-10-26.58C512,141.6,502.57,146.87,502,154.68Z" style="fill:#ad6359"></path><path d="M518.57,160.36s-.06.08,0,.11c.38.93.65,2.06-.09,2.69,0,0,0,.07,0,.05C519.46,162.68,519.08,161.18,518.57,160.36Z" style="fill:#263238"></path><path d="M517.37,159.69c-1.56.44-.56,3.52.88,3.11S518.67,159.32,517.37,159.69Z" style="fill:#263238"></path><path d="M523.63,158.74s.09,0,.1.06c.28,1,.76,2,1.73,2.06a0,0,0,0,1,0,.06C524.36,161.11,523.74,159.7,523.63,158.74Z" style="fill:#263238"></path><path d="M524.16,157.47c1.49-.62,2.61,2.42,1.22,3S522.9,158,524.16,157.47Z" style="fill:#263238"></path><path d="M515.7,158.67a11.63,11.63,0,0,0,1-.8c.4-.32.76-.53.92-1a.69.69,0,0,0-.36-.76,1.7,1.7,0,0,0-1.68.37,2.43,2.43,0,0,0-1,1.47A.73.73,0,0,0,515.7,158.67Z" style="fill:#263238"></path><path d="M524.84,155.53a11.69,11.69,0,0,1-1.32.08,2.14,2.14,0,0,1-1.37-.18.67.67,0,0,1-.22-.8,1.67,1.67,0,0,1,1.51-.83,2.45,2.45,0,0,1,1.74.44A.73.73,0,0,1,524.84,155.53Z" style="fill:#263238"></path><path d="M520,169.64a1.52,1.52,0,0,0,1,.3,2.65,2.65,0,0,0,1-.57s.07,0,.06,0a1.34,1.34,0,0,1-1.05.91,1,1,0,0,1-1-.6C519.83,169.66,519.9,169.62,520,169.64Z" style="fill:#263238"></path><path d="M520,166.46a3.44,3.44,0,0,0,2.64.74,4.56,4.56,0,0,0,1.19-.32l.21-.1.2-.1a.25.25,0,0,0,.12-.28h0a.36.36,0,0,0,0-.09h0l0-.08c-.22-.74-.65-1.84-.65-1.84.31,0,1.88.22,1.73-.15a51.37,51.37,0,0,0-4.45-9.43.09.09,0,0,0-.17.08c1.06,3,2.64,5.88,3.75,8.92a5.91,5.91,0,0,0-1.69,0c-.09.06.88,2.1.95,2.44a.06.06,0,0,1,0,0,4.79,4.79,0,0,1-3.71,0C520,166.31,519.94,166.4,520,166.46Z" style="fill:#263238"></path><path d="M523.31,166.7a4,4,0,0,1-1.23,1.64,1.8,1.8,0,0,1-1.05.36c-.82,0-1-.69-1.07-1.33a4.54,4.54,0,0,1,.09-1A5.3,5.3,0,0,0,523.31,166.7Z" style="fill:#263238"></path><path d="M522.08,168.34a1.8,1.8,0,0,1-1.05.36c-.82,0-1-.69-1.07-1.33A1.87,1.87,0,0,1,522.08,168.34Z" style="fill:#ff9bbc"></path><path d="M504,163.89c.79-.71,1.65-4.18,2.05-5.62s-1.34-7.37-1.91-9.12a9.81,9.81,0,0,0-2.13,5.07C501.72,156.39,502.58,160.17,504,163.89Z" style="fill:#263238;opacity:0.2"></path><path d="M516.93,150.23a4.78,4.78,0,0,1-3.6,2.94,4.89,4.89,0,0,1-4.49-1.53s-.09,0,0,0a4.79,4.79,0,0,0,4.6,1.87,4.92,4.92,0,0,0,3.65-3.27C517.06,150.2,517,150.16,516.93,150.23Z" style="fill:#263238"></path><path d="M508.45,140.69A7.51,7.51,0,0,0,503.6,146a5.41,5.41,0,0,0,.63,3.47s.12,0,.1-.05a5.87,5.87,0,0,1,.9-5.92,7.57,7.57,0,0,1,6.08-2.92,4.79,4.79,0,0,1,3.1,1.12c.08.08.26-.05.18-.14C513.33,140.19,510.8,139.83,508.45,140.69Z" style="fill:#263238"></path><path d="M525.57,141.17a6,6,0,0,0-3.51-2.26c-1.95-.45-3.71.32-5.45,1.12-.05,0,0,.09,0,.07a8.45,8.45,0,0,1,4.68-1,6,6,0,0,1,3.57,1.86,5.85,5.85,0,0,1,.05,7.65,6,6,0,0,1-4.27,2c-.06,0-.08.1,0,.1a6,6,0,0,0,4.91-9.47Z" style="fill:#263238"></path><path d="M502.06,157.13s-4.06-3.85-2.9-7.26c.66-1.94,4.64-3.05,4.64-3.05a7.42,7.42,0,0,1,3.49-4.5c3-1.85,7.55-1.25,7.55-1.25s2.51-2.83,6-2.14c4.84.95,6.42,7.3,3,10.66-2.4,2.36-7.15,1.14-7.15,1.14-.36.17-3.41,3.78-7.46,1.33,0,0-1.66,2.89-4.26,2.13A3.62,3.62,0,0,1,502.06,157.13Z" style="fill:#263238"></path><path d="M507.61,165.66s-4.34-3.82-6.15-2.17,2.24,7.75,4.91,8.06a2.56,2.56,0,0,0,3-2.15Z" style="fill:#ad6359"></path><path d="M502.66,165.21s0,.06,0,.07c1.89.28,3.18,1.65,4.22,3.15a1.42,1.42,0,0,0-2.15.12.06.06,0,0,0,.06.09,1.56,1.56,0,0,1,1.82.12,8,8,0,0,1,1.15,1.17c.11.13.37,0,.27-.18l0,0C507.52,167.51,505.07,164.86,502.66,165.21Z" style="fill:#263238"></path><path d="M501.87,182.83c3.1-1,5.79,3.89,5.41,11.59s-9.46,21.82-14,20.28c-6.17-2.11-.25-16.56,2.24-22.45C497.94,186.62,500.29,183.35,501.87,182.83Z" style="fill:#ad6359"></path><path d="M503.5,192.26c-6.79,20.06-14.11,34.43-19.6,37.39-7.89,4.24-21.54,10.11-32.41,12.39-3.17.67-9.58-21.15-6.17-21.73,4.69-.79,27.2-8.24,27.6-8.36.86-.25,18.91-20.46,22.48-24.47C502.23,179.77,507.14,181.5,503.5,192.26Z" style="fill:#ad6359"></path><path d="M454.19,241.23c-2.6.93-16.6,6.1-20.21,6.23s-14.06-.26-14.44-3,2.68-2.89,2.68-2.89-4.38-.86-4.51-3.67,4.65-2.86,4.65-2.86-4.44-1.22-4.36-4,4.88-2.06,4.88-2.06-4.11-.92-3.07-3.22c1.24-2.76,8.63-.21,12.61-.65.9-.1,18.19-3.33,18.19-3.33Z" style="fill:#ad6359"></path><path d="M422.47,228.86c5.43,1.86,8.13,1.74,13.63.44a.09.09,0,1,1,.06.16c-5.27,1.77-8.64,2.41-13.8-.34C422.11,229,422.21,228.77,422.47,228.86Z" style="fill:#263238"></path><path d="M421.93,234.85c5.81,1.44,8.74,1.33,14.6.39.09,0,.12.13,0,.15-5.68,1.4-9.05,2-14.67-.24C421.65,235.05,421.67,234.78,421.93,234.85Z" style="fill:#263238"></path><path d="M422.52,241.48c5.73,1,8.94,1,14.52-.63a.11.11,0,0,1,.07.2c-5.52,2.23-9.53,2.24-14.6.61C422.16,241.55,422.16,241.42,422.52,241.48Z" style="fill:#263238"></path><path d="M453.59,218.25s-6.67-2.71-9.86-3.26-15.83,1.8-15.48,4.56c.45,3.56,8,3.65,11.73,3.2,0,0,1,8.24,6.45,9.48S453.59,218.25,453.59,218.25Z" style="fill:#ad6359"></path><path d="M428.69,220.49c2.76,2.95,7.59,2,11.22,1.89a.34.34,0,0,1,.36.42c.66,3.43,2.6,8.06,6,9.55a.09.09,0,0,1-.06.16c-3.83-1.11-6.1-5.51-6.59-9.3-3.72.22-8.61.9-10.93-2.7C428.65,220.49,428.68,220.47,428.69,220.49Z" style="fill:#263238"></path><path d="M499.2,205.6l-.66.93c.71-1.69,1.34-3.4,1.92-5.14,0,0,0,0-.07,0-1.55,2.32-5.53,11.86-5.88,12.77s.11.6.34.21c.48-.79,2.9-5.95,3.27-6.79.18-.22.36-.43.52-.66.26-.38.52-.75.76-1.15.47-.79.92-1.59,1.36-2.39,0,0,0,0,0,0C500.27,204.12,499.74,204.87,499.2,205.6Z" style="fill:#263238"></path></g><g id="freepik--character-1--inject-107"><path d="M424.13,242.31s19.7,98.92,21.08,106.22c.32,1.66-.81,90.2-.81,90.2H481s3.52-77.34,1.76-91.93-24.07-104.49-24.07-104.49Z" style="fill:#f7a9a0"></path><path d="M424.13,242.31s9.58,48.14,15.86,79.74l18.7-79.74Z" style="opacity:0.1"></path><path d="M508.08,472.27c-2,.67-59.74.51-61.94-.89-.83-.52-1.3-8.94-1.57-19.11-.07-2.2-.11-4.46-.15-6.77,0-2.73-.08-5.49-.09-8.18-.07-12.05.36-22.67.36-22.67H482l0,22.67v8.18l-.19,6.77s22.07,10,24.31,11.75S510.09,471.61,508.08,472.27Z" style="fill:#f7a9a0"></path><path d="M445.31,467.69l63.65.49s1.53,2.91,0,4.47c0,0-43.63,1.55-63.48-.82A4.41,4.41,0,0,1,445.31,467.69Z" style="fill:#263238"></path><path d="M468.8,469.6s3.46-9,9.05-13.15,9.43-4,9.43-4l6.38,3.67s-7,2.12-10.6,4.82-5.73,8.82-5.73,8.82Z" style="fill:#263238"></path><path d="M479.94,469.6s2-5.36,5.73-8,10-4.39,10-4.39l4.37,3.12s-6.95,2.52-9.39,4.18-3.24,5.44-3.24,5.44Z" style="fill:#263238"></path><path d="M472.59,472.55c-13.29-.16-25.46-.54-26.46-1.17-.83-.52-1.29-8.93-1.57-19.11,0-1.32-.06-2.66-.09-4Z" style="opacity:0.1"></path><path d="M433.35,434.15l-37.19-.46s8.2-128.38,11.42-155.09c0,0-6.11-14.47,5.32-36.32h45.82s-3.07,20.79-8.33,34a48.83,48.83,0,0,0-9.59,4.32Z" style="fill:#f7a9a0"></path><path d="M459,472.81c-2,.67-59.74.5-61.94-.89-.83-.52-1.29-8.94-1.57-19.11-.06-2.2,1.93-38.29,1.93-38.29l36.47-.3-1.19,38.59s22.07,9.95,24.32,11.74S461,472.15,459,472.81Z" style="fill:#f7a9a0"></path><path d="M396.2,468.11l63.64.49s1.53,2.91,0,4.47c0,0-43.62,1.55-63.47-.82A4.38,4.38,0,0,1,396.2,468.11Z" style="fill:#263238"></path><path d="M419.69,470s3.45-9,9-13.15,9.43-4,9.43-4l6.38,3.67s-7,2.12-10.6,4.82-5.73,8.82-5.73,8.82Z" style="fill:#263238"></path><path d="M430.82,470s2-5.36,5.73-7.95,10-4.39,10-4.39l4.38,3.12s-6.95,2.52-9.4,4.18-3.24,5.44-3.24,5.44Z" style="fill:#263238"></path><path d="M412.09,242.28a67.11,67.11,0,0,0-7.27,24.57c-1.08,14.29-6.06,31.5-6.06,31.5s26.57,4.44,35.42,4.77S474,294.24,474,294.24s-11.8-37.35-15.27-52Z" style="fill:#90CAF9"></path><path d="M413.54,251.55a1.41,1.41,0,1,1-1.41-1.41A1.41,1.41,0,0,1,413.54,251.55Zm16-1.41a1.41,1.41,0,1,0,1.4,1.41A1.41,1.41,0,0,0,429.53,250.14Zm17.39,0a1.41,1.41,0,1,0,1.41,1.41A1.41,1.41,0,0,0,446.92,250.14Zm-34.79,26.59a1.41,1.41,0,1,0,1.41,1.4A1.41,1.41,0,0,0,412.13,276.73Zm17.4,0a1.41,1.41,0,1,0,1.4,1.4A1.41,1.41,0,0,0,429.53,276.73Zm17.39,0a1.41,1.41,0,1,0,1.41,1.4A1.41,1.41,0,0,0,446.92,276.73Zm17.4,0a1.41,1.41,0,1,0,1.4,1.4A1.41,1.41,0,0,0,464.32,276.73ZM420.83,263.8a1.41,1.41,0,1,0,1.4,1.41A1.41,1.41,0,0,0,420.83,263.8Zm17.39,0a1.41,1.41,0,1,0,1.41,1.41A1.41,1.41,0,0,0,438.22,263.8Zm17.4,0a1.41,1.41,0,1,0,1.4,1.41A1.41,1.41,0,0,0,455.62,263.8Zm-52.19,26.59a1.41,1.41,0,1,0,1.41,1.41A1.41,1.41,0,0,0,403.43,290.39Zm17.4,0a1.41,1.41,0,1,0,1.4,1.41A1.41,1.41,0,0,0,420.83,290.39Zm17.39,0a1.41,1.41,0,1,0,1.41,1.41A1.41,1.41,0,0,0,438.22,290.39Zm17.4,0a1.41,1.41,0,1,0,1.4,1.41A1.41,1.41,0,0,0,455.62,290.39Zm17.17,0a1.4,1.4,0,0,0,.22,2.79,1.25,1.25,0,0,0,.61-.15C473.42,292.41,473.14,291.51,472.79,290.41Z" style="fill:#fff"></path><path d="M441.41,275.68c.76-2.44,4.9-10.8,6.93-13.16a32.78,32.78,0,0,1,5.68-4.89" style="opacity:0.1"></path><path d="M450.93,266.4s-2.34,2.9-2.67,3.57a15.35,15.35,0,0,0-1.22,3.65" style="opacity:0.1"></path><path d="M462.42,139.34c-15.53-6.86-27.81,12.89-37,23-8.49,9.27-24.18,19.57-21.34,28.88,4.14,13.56,32.9,11.18,53.48-9.26C472.28,167.25,473.3,144.14,462.42,139.34Z" style="fill:#90CAF9"></path><path d="M462.42,139.34c-15.53-6.86-27.81,12.89-37,23-8.49,9.27-24.18,19.57-21.34,28.88,4.14,13.56,32.9,11.18,53.48-9.26C472.28,167.25,473.3,144.14,462.42,139.34Z" style="opacity:0.4"></path><path d="M449.78,158.52c11.12,11.79,13.83,31.67,3.73,49.74-9.18,16.43-31.11,21.44-40.61,15.22-10.08-6.6-11.08-21.37-4.79-29,6.07-7.34,14.28-8.36,17.61-15.46,1.59-3.4,1.22-9.86,3.66-15.95S442.86,151.18,449.78,158.52Z" style="fill:#263238"></path><path d="M430.44,227a30.59,30.59,0,0,0,15.36-7.38,44.68,44.68,0,0,0,14.46-34.2,41.14,41.14,0,0,0-5.33-18.46,43.42,43.42,0,0,1,4.82,18.49,41.71,41.71,0,0,1-.85,9.66,43.7,43.7,0,0,1-2.94,9.09,48.51,48.51,0,0,1-4.54,8.15,38.63,38.63,0,0,1-5.94,6.76,35,35,0,0,1-7.12,5A28.51,28.51,0,0,1,430.44,227Z" style="fill:#263238"></path><path d="M406.11,196.12a19.63,19.63,0,0,1,3.51-4.56A23.39,23.39,0,0,1,414,188.2c1.57-.92,3.12-1.89,4.65-2.93a24.38,24.38,0,0,0,4.32-3.67,18,18,0,0,0,1.82-2.34,13,13,0,0,0,1.25-2.82,60.41,60.41,0,0,0,1.42-5.95,27.46,27.46,0,0,1,1.78-5.71,18.06,18.06,0,0,1,3.5-4.7,16.62,16.62,0,0,0-3.78,4.52,27.36,27.36,0,0,0-2,5.75c-.5,2-.86,4-1.49,5.85a12.86,12.86,0,0,1-1.21,2.63,15.94,15.94,0,0,1-1.75,2.2c-2.52,2.8-5.7,4.63-8.75,6.64a23.73,23.73,0,0,0-4.33,3.6A19.2,19.2,0,0,0,406.11,196.12Z" style="fill:#263238"></path><path d="M452.68,201.15c21-3.35,48.4-15,49.53-24.72,1-8.71-7-23.84-21.91-35-2-1.47-13,18.76-10.21,22.5,1.84,2.47,5.49,6.72,7.19,8.89.83,1.07-18.22,12.24-25.52,17.3C438.26,199.55,446.83,202.08,452.68,201.15Z" style="fill:#f7a9a0"></path><path d="M455.09,200.73l-2.41.42c-5.12.82-12.29-1-5.05-7.73Z" style="opacity:0.1"></path><path d="M412.09,242.28l46.6,0-1-14.44s3.85-5.13,2.9-9.47c-1.32-6.1-12-23.4-13-24.31-3.86-3.68-10.19-4-13.31-1.36C417.65,206.68,412.09,242.28,412.09,242.28Z" style="fill:#90CAF9"></path><path d="M430.93,198.37a1.41,1.41,0,0,1-1.41,1.41,1.38,1.38,0,0,1-1.16-.62h0c.54-.72,1.08-1.42,1.65-2.1A1.43,1.43,0,0,1,430.93,198.37Zm16-1.4a1.41,1.41,0,1,0,1.41,1.41A1.41,1.41,0,0,0,446.92,197Zm-17.39,26.59a1.41,1.41,0,1,0,1.4,1.4A1.41,1.41,0,0,0,429.53,223.56Zm17.39,0a1.41,1.41,0,1,0,1.41,1.4A1.41,1.41,0,0,0,446.92,223.56Zm-25.35-12.72c-.39.84-.77,1.69-1.13,2.54a1.23,1.23,0,0,0,.39.06,1.41,1.41,0,0,0,1.41-1.4A1.44,1.44,0,0,0,421.57,210.84Zm16.65-.21a1.41,1.41,0,1,0,1.41,1.41A1.41,1.41,0,0,0,438.22,210.63Zm17.4,0A1.41,1.41,0,1,0,457,212,1.41,1.41,0,0,0,455.62,210.63Zm-34.79,26.59a1.41,1.41,0,1,0,1.4,1.4A1.41,1.41,0,0,0,420.83,237.22Zm17.39,0a1.41,1.41,0,1,0,1.41,1.4A1.4,1.4,0,0,0,438.22,237.22Zm17.4,0a1.41,1.41,0,1,0,1.4,1.4A1.41,1.41,0,0,0,455.62,237.22Z" style="fill:#fff"></path><path d="M443.88,225.23a37.1,37.1,0,0,1,6.68.78c1.1.25,2.18.57,3.27.91.54.17,1.08.32,1.63.47a6,6,0,0,0,1.72.25c.05,0,.06.09,0,.1a9.85,9.85,0,0,1-1.63.11,9.43,9.43,0,0,1-1.58-.24c-1.12-.24-2.23-.54-3.34-.8-2.25-.52-4.5-1-6.77-1.34C443.77,225.45,443.77,225.23,443.88,225.23Z" style="fill:#263238"></path><path d="M438.66,228.21a38.42,38.42,0,0,1,5.44-.83,25.2,25.2,0,0,1,2.75,0l1.32.07c.48,0,1,.15,1.45.18.05,0,.06.1,0,.1-.46,0-.91.08-1.37.11l-1.37.07c-.91.06-1.82.13-2.74.17-1.83.08-3.65.19-5.48.36C438.57,228.41,438.56,228.23,438.66,228.21Z" style="fill:#263238"></path><path d="M435.62,193.25c2.38,3.94.2,13.58-2.58,17.64s-11.13,13.86-14,13.24,2-14.45,6.11-21C429.39,196.42,434.23,191,435.62,193.25Z" style="fill:#f7a9a0"></path><path d="M431.82,205.41c-3.91,4.53-18.27,15.13-18.6,17.07-.05.31,1.33,4,1.19,4.75-.54,3.09-11.11,28.33-13.63,26-3.31-3.07-14.26-25-11.41-33.39s39-25.56,44.68-27.08C437.93,191.71,435.69,201,431.82,205.41Z" style="fill:#f7a9a0"></path><path d="M430.43,207.16c-5.38,5.32-11.47,9.93-16.81,15.28-.06.16,0-.08,0,.16.17,1.41.48,2.8.77,4.21a18.15,18.15,0,0,1-1.48-4.21c-.07-.12.05-.47.12-.55,5-5.76,11.33-10.38,17.43-14.89Z" style="fill:#263238"></path><path d="M430.43,208.86a10.57,10.57,0,0,1-4.16,2,10.56,10.56,0,0,1,4.16-2Z" style="fill:#263238"></path><path d="M399.45,244.2c1.77-3,9.43-15,11.26-17.46.12-.17.26-.14.15.06a187.4,187.4,0,0,1-11.29,17.47A.07.07,0,0,1,399.45,244.2Z" style="fill:#263238"></path><path d="M411.48,258.78c2.66-1.56-.7-3.79-.7-3.79s5.6,2.05,7.72-.61-2.11-5.13-2.41-5.31c.3.1,5.49,1.86,7.34-1s-2.68-4.86-3-5c.31,0,4.44.11,5.34-2.41,1.56-4.33-10.24-5.6-12.62-8.46,0,0,1.53-5.75,1.63-5.91a6.72,6.72,0,0,1-3.55,2.64c-2.61.56-4.94.83-6.06,2a3.38,3.38,0,0,0-.64,4s-3.2-.58-4.73,1.65c-.78,1.15.36,3.42.36,3.42a4,4,0,0,0-3.83,1.71c-1,1.65.31,3.67.31,3.67s-2.65.8-3.11,2.82C392.61,252.2,405.8,262.1,411.48,258.78Z" style="fill:#f7a9a0"></path><path d="M396.83,245.67c-.05,0-.11,0-.07.06a28.68,28.68,0,0,0,14.19,9.4c.18,0,.33-.23.15-.31A58.64,58.64,0,0,1,396.83,245.67Z" style="fill:#263238"></path><path d="M400.1,239.91c-.05,0-.12,0-.07.09a26.8,26.8,0,0,0,16.11,9.3c.23,0,.46-.17.2-.22C412.1,248.15,404.08,243.47,400.1,239.91Z" style="fill:#263238"></path><path d="M420.93,243c-6.16-1.11-11.34-4.08-16.23-7.9-.06,0-.12.05-.08.11,1.88,2.51,5.25,4.62,8,6a16.44,16.44,0,0,0,8.26,2C421,243.17,421.06,243,420.93,243Z" style="fill:#263238"></path><path d="M396.5,245.29a4,4,0,0,1-.65-4.1,2.93,2.93,0,0,1,1.55-1.39,5.19,5.19,0,0,1,2.43-.07,3.89,3.89,0,0,1,.22-4.39,2.92,2.92,0,0,1,1.94-.88,9.14,9.14,0,0,1,2.52.27,3.46,3.46,0,0,1-.54-3,3.73,3.73,0,0,1,2.45-2.35,17.41,17.41,0,0,1,4.06-.68,8.65,8.65,0,0,0,2.08-.43,3.82,3.82,0,0,0,1.8-1.41c.09-.11.07,0,0,.11a5.31,5.31,0,0,1-1.08,1.13,6.4,6.4,0,0,1-1.44.81,27,27,0,0,1-3.89.87,5.37,5.37,0,0,0-3,1.71,3.18,3.18,0,0,0-.32,3.34c0,.05,0,.12-.1.11a9.59,9.59,0,0,0-2.27.11,3.17,3.17,0,0,0-1.64.88,4.07,4.07,0,0,0-.46,4.06,6.85,6.85,0,0,0-2.41.46,3,3,0,0,0-1.2,1.16,3.54,3.54,0,0,0,.13,3.71.09.09,0,0,1,0,0h0v0l0,0h0s-.85.29-.89.29,0,0,0,0A5.69,5.69,0,0,1,396.5,245.29Z" style="fill:#263238"></path><path d="M436.77,193.05c.27,1.44,5.44,8.48,9.85,8.28,2.26-.1.79-8.73.79-8.73l.11-.59,1.47-8.19-11.21-6.46S436.69,192.64,436.77,193.05Z" style="fill:#f7a9a0"></path><path d="M437.78,177.36s-.26,3.82-.52,7.85c2.92,4.84,7.68,6.49,10.17,7.3l1.56-8.69Z" style="fill:#263238"></path><path d="M458.44,171.53c1.91,14.48-6.43,17.22-9.51,17.62-2.79.36-12.36,1.22-15.73-13s2.67-19.65,9-20.82S456.54,157.05,458.44,171.53Z" style="fill:#f7a9a0"></path><path d="M454.84,168.8c-.34,0-.66-.08-1-.12a1.59,1.59,0,0,1-1-.32.51.51,0,0,1-.06-.63,1.29,1.29,0,0,1,1.24-.41,1.93,1.93,0,0,1,1.24.56A.56.56,0,0,1,454.84,168.8Z" style="fill:#263238"></path><path d="M445.23,170.1c.34-.07.64-.19,1-.29a1.63,1.63,0,0,0,.92-.49.5.5,0,0,0-.06-.63,1.29,1.29,0,0,0-1.29-.19,1.91,1.91,0,0,0-1.12.77A.56.56,0,0,0,445.23,170.1Z" style="fill:#263238"></path><path d="M447.52,172.79s-.07.06-.07.1c.14,1,.14,2.13-.72,2.56,0,0,0,.06,0,.05C447.82,175.22,447.81,173.7,447.52,172.79Z" style="fill:#263238"></path><path d="M446.52,171.86c-1.6.06-1.37,3.25.12,3.2S447.86,171.81,446.52,171.86Z" style="fill:#263238"></path><path d="M445.91,172.07c-.27.2-.52.54-.85.6s-.71-.25-1-.55c0,0-.05,0-.05,0,0,.61.32,1.23,1,1.27s1-.53,1.1-1.16C446.12,172.15,446,172,445.91,172.07Z" style="fill:#263238"></path><path d="M453.29,172.15s.08,0,.09.08c.05,1,.27,2.12,1.2,2.37,0,0,0,.06,0,.05C453.47,174.59,453.18,173.09,453.29,172.15Z" style="fill:#263238"></path><path d="M454.09,171c1.58-.26,2,2.92.51,3.16S452.76,171.25,454.09,171Z" style="fill:#263238"></path><path d="M454.78,171.17c.27.13.55.41.86.39s.56-.4.74-.75c0,0,.05,0,.06,0,.09.6,0,1.26-.6,1.45s-1-.3-1.2-.89C454.6,171.29,454.67,171.11,454.78,171.17Z" style="fill:#263238"></path><path d="M448,180.77c.24.23.49.54.85.56a2.61,2.61,0,0,0,1.06-.28,0,0,0,0,1,.05,0,1.34,1.34,0,0,1-1.25.57,1,1,0,0,1-.8-.85C447.84,180.76,447.92,180.74,448,180.77Z" style="fill:#263238"></path><path d="M448.24,178.18a3.33,3.33,0,0,0,2.41,1.1,4.28,4.28,0,0,0,1.18-.14.71.71,0,0,0,.22-.06l.21-.06a.25.25,0,0,0,.16-.25h0l0-.09h0l0-.08c-.09-.74-.35-1.86-.35-1.86.3.1,1.77.49,1.69.11a50.78,50.78,0,0,0-2.85-9.67c0-.1-.2,0-.17.05.55,3.07,1.64,6,2.25,9.08a6,6,0,0,0-1.62-.22c-.1.05.53,2.14.54,2.48,0,0,0,0,0,0a4.55,4.55,0,0,1-3.54-.5C448.24,178,448.17,178.11,448.24,178.18Z" style="fill:#263238"></path><path d="M451.28,179a3.5,3.5,0,0,1-1.27,1.27,1.53,1.53,0,0,1-.95.19c-.72-.09-.82-.73-.76-1.29a3.55,3.55,0,0,1,.2-.87A4.63,4.63,0,0,0,451.28,179Z" style="fill:#263238"></path><path d="M450,180.24a1.53,1.53,0,0,1-.95.19c-.72-.09-.82-.73-.76-1.29A1.64,1.64,0,0,1,450,180.24Z" style="fill:#ff98b9"></path><path d="M433.56,175.63c2.34.18,2.88-4.72,2.88-4.72s4.75,0,6.33-6.8a10.53,10.53,0,0,1-2.11,5.64s8.37-.87,11.91-7.88c0,0-1.41,3.57-2.73,4.84a9.85,9.85,0,0,0,5.23-3.83s1.46,4.05,2.59,5.17c0,0-.33-14.66-13.91-13.12,0,0-8.5.55-11.56,7.28S433.56,175.63,433.56,175.63Z" style="fill:#263238"></path><path d="M435.7,177s-3.15-4.43-5-3.22.66,7.72,2.94,8.53a2.23,2.23,0,0,0,3-1.45Z" style="fill:#f7a9a0"></path><path d="M431.46,175.58s0,0,0,.06c1.6.63,2.5,2.17,3.15,3.78-.5-.61-1.15-.93-1.9-.29,0,0,0,.1.05.09a1.33,1.33,0,0,1,1.56.46,7.37,7.37,0,0,1,.8,1.32c.08.15.33.06.27-.11v0C435.32,178.68,433.62,175.71,431.46,175.58Z" style="fill:#263238"></path><path d="M433.87,181.71a.58.58,0,0,0,.73.41.63.63,0,0,0,.37-.78.57.57,0,0,0-.73-.41A.63.63,0,0,0,433.87,181.71Z" style="fill:#455a64"></path><path d="M434.16,181.61a.28.28,0,0,0,.35.2.3.3,0,0,0,.17-.37.27.27,0,0,0-.34-.2A.29.29,0,0,0,434.16,181.61Z" style="fill:#263238"></path><path d="M432.83,181a.41.41,0,0,0,.51.29.44.44,0,0,0,.26-.55.41.41,0,0,0-.51-.3A.45.45,0,0,0,432.83,181Z" style="fill:#455a64"></path><path d="M406.93,180.91c7.84-8,22.94-12.18,27.14-17.76,8.14-10.82,5.29-16.67,14.06-23.23,0,0-.14.08-.32.16-8.85,4.62-16.3,15.55-22.42,22.23C419.93,168.26,411.51,174.64,406.93,180.91Z" style="fill:#90CAF9"></path><path d="M490.84,151.32s-9.83-13.69-18.38-18c-3.58-1.81-20.06-6-21.21-2-1,3.58,13.51,5.56,13.51,5.56s-14.51-3.3-15,1.24,16.28,4.59,16.28,4.59-15-3.06-14.72,1.69c.2,3.59,15.36,4.5,15.36,4.5s-12.9-2.54-12.85,1.16c.05,4.09,14,5.81,14,5.81.08,6.88,2.21,10.42,5.84,12.71C474.57,169.05,490.84,151.32,490.84,151.32Z" style="fill:#f7a9a0"></path><path d="M469.85,137.62c-1.69-.45-3.39-.91-5.12-1.21s-3.46-.54-5.2-.67a30,30,0,0,0-6.84.12,64.17,64.17,0,0,1,12,1c1.72.29,3.45.5,5.18.8C469.89,137.7,469.9,137.63,469.85,137.62Z" style="fill:#263238"></path><path d="M468.89,143.87c-2.18-.48-4.33-1-6.53-1.42s-4.31-.55-6.53-.79c-.17,0-.12.08.05.11,2.2.32,4.21.78,6.41,1.13s4.42.6,6.6,1C468.92,143.93,468.93,143.88,468.89,143.87Z" style="fill:#263238"></path><path d="M469,149.38A49.73,49.73,0,0,0,458.87,148c-.17,0-.1.11.08.13,3.38.4,6,.7,10.05,1.39C469.06,149.5,469.1,149.4,469,149.38Z" style="fill:#263238"></path></g></svg>
