<?xml version="1.0" encoding="utf-8"?>
<!-- Generator: Adobe Illustrator 27.5.0, SVG Export Plug-In . SVG Version: 6.00 Build 0)  -->
<svg version="1.1" xmlns="http://www.w3.org/2000/svg" xmlns:xlink="http://www.w3.org/1999/xlink" x="0px" y="0px"
	 viewBox="0 0 500 500" style="enable-background:new 0 0 500 500;" xml:space="preserve">
<g id="Background_complete">
	<g>
		<g>
			<g>
				<g>
					<path style="fill:#E0E0E0;" d="M443.92,331.295H263.174c-3.232,0-5.862-2.63-5.862-5.862V62.159
						c0-3.232,2.63-5.862,5.862-5.862H443.92c3.232,0,5.862,2.629,5.862,5.862v263.273
						C449.783,328.665,447.153,331.295,443.92,331.295z M263.174,56.547c-3.095,0-5.612,2.518-5.612,5.612v263.273
						c0,3.095,2.518,5.612,5.612,5.612H443.92c3.095,0,5.612-2.518,5.612-5.612V62.159c0-3.094-2.518-5.612-5.612-5.612H263.174z"/>
				</g>
			</g>
			<g>
				<g>
					<path style="fill:#E0E0E0;" d="M235.493,331.295H54.746c-3.232,0-5.862-2.63-5.862-5.862V62.159
						c0-3.232,2.629-5.862,5.862-5.862h180.747c3.232,0,5.862,2.629,5.862,5.862v263.273
						C241.355,328.665,238.725,331.295,235.493,331.295z M54.746,56.547c-3.094,0-5.612,2.518-5.612,5.612v263.273
						c0,3.095,2.518,5.612,5.612,5.612h180.747c3.095,0,5.612-2.518,5.612-5.612V62.159c0-3.094-2.518-5.612-5.612-5.612H54.746z"/>
				</g>
			</g>
		</g>
		<g>
			<g>
				<rect x="0" y="392.364" style="fill:#E0E0E0;" width="500" height="0.25"/>
			</g>
		</g>
		<g>
			<rect x="167.595" y="403.111" style="fill:#E0E0E0;" width="53.53" height="0.25"/>
			<rect x="65.975" y="415.111" style="fill:#E0E0E0;" width="36.25" height="0.25"/>
			<rect x="375.595" y="402.981" style="fill:#E0E0E0;" width="43.19" height="0.25"/>
			<rect x="427.695" y="402.981" style="fill:#E0E0E0;" width="6.33" height="0.25"/>
			<rect x="313.455" y="409.211" style="fill:#E0E0E0;" width="53.89" height="0.25"/>
		</g>
		<rect x="52.46" y="405.531" style="fill:#E0E0E0;" width="16.06" height="0.25"/>
	</g>
	<g>
		<path style="fill:#E0E0E0;" d="M129.052,148.609L84.9,131.789l-44.152,16.82c-0.841,1.682,0,72.745,44.152,88.724
			C129.052,221.354,129.893,150.291,129.052,148.609z"/>
		<path style="fill:#F0F0F0;" d="M121.524,154.738L84.9,140.787l-36.624,13.952c-0.698,1.395,0,60.342,36.624,73.597
			C121.524,215.081,122.222,156.134,121.524,154.738z"/>
		<g>
			<polygon style="fill:#FFFFFF;" points="85.441,198.35 68.145,184.898 72.839,178.862 84.437,187.883 101.031,168.91 
				106.786,173.943 			"/>
		</g>
	</g>
	<g>
		<polygon style="fill:#E0E0E0;" points="47.952,464.307 81.458,464.307 88.027,391.966 41.382,391.966 		"/>
		<path style="fill:#E0E0E0;" d="M64.214,404.003c0.927-30.18-6.486-92.457-18.532-116.66l0.825-0.408
			c12.519,25.204,19.514,87.166,18.662,117.095L64.214,404.003z"/>
		<path style="fill:#E0E0E0;" d="M74.925,307.246c-11.323,8.886-14.39,37.861-14.39,37.861
			C68.56,331.839,80.995,325.538,74.925,307.246z"/>
		<path style="fill:#E0E0E0;" d="M60.396,345.552c-0.205-0.065-0.334-0.268-0.306-0.482c0.12-1.195,3.206-29.272,14.557-38.186
			c0.118-0.092,0.274-0.12,0.417-0.074c0.144,0.043,0.258,0.154,0.306,0.297c4.559,13.732-1.103,20.793-7.654,28.957
			c-2.47,2.937-4.736,6.039-6.783,9.285c-0.086,0.138-0.236,0.221-0.398,0.222L60.396,345.552z M61.267,343.097
			c1.826-2.77,3.799-5.226,5.717-7.617c6.282-7.83,11.722-14.613,7.709-27.446C65.77,315.679,62.157,336.462,61.267,343.097z"/>
		<path style="fill:#E0E0E0;" d="M32.876,302.623c13.566,4.716,25.611,31.505,25.611,31.505
			C46.599,324.176,33.061,321.868,32.876,302.623z"/>
		<path style="fill:#E0E0E0;" d="M58.534,334.498c-2.891-2.342-5.92-4.508-9.071-6.486c-8.877-5.782-16.549-10.786-16.679-25.417
			c0.002-0.15,0.074-0.29,0.195-0.38c0.124-0.087,0.284-0.108,0.426-0.056c13.621,4.754,25.38,30.68,25.871,31.783
			c0.03,0.063,0.045,0.132,0.044,0.201c-0.004,0.251-0.21,0.451-0.461,0.447C58.743,334.596,58.629,334.564,58.534,334.498z
			 M49.981,327.243c2.493,1.622,5.05,3.289,7.58,5.254c-2.937-5.986-12.889-24.833-23.842-29.225
			C34.08,316.883,41.456,321.683,49.981,327.243z"/>
		<path style="fill:#E0E0E0;" d="M83.135,334.924c-14.066,10.656-18.699,50.964-18.699,50.964
			C74.545,369.82,90.177,357.469,83.135,334.924z"/>
		<path style="fill:#E0E0E0;" d="M64.251,386.425c-0.251-0.089-0.408-0.338-0.38-0.602c0.195-1.659,4.837-40.669,18.921-51.334
			c0.148-0.112,0.341-0.146,0.519-0.093c0.177,0.055,0.315,0.194,0.371,0.371c5.615,17.967-2.835,29.383-11.786,41.484
			c-2.344,3.197-4.818,6.505-6.977,9.943c-0.104,0.165-0.287,0.263-0.482,0.259C64.373,386.453,64.311,386.444,64.251,386.425z
			 M65.335,383.469c1.816-2.715,3.799-5.337,5.652-7.895c8.636-11.675,16.799-22.711,11.851-39.668
			C71.59,345.33,66.595,374.713,65.335,383.469z"/>
		<path style="fill:#E0E0E0;" d="M30.605,329.337c16.54,6.097,32.209,34.822,32.209,34.822
			C48.48,351.715,30.392,352.938,30.605,329.337z"/>
		<path style="fill:#E0E0E0;" d="M62.444,364.585c-4.429-3.846-9.164-6.338-13.751-8.757c-10.091-5.319-18.81-9.915-18.662-26.492
			c0.001-0.062,0.013-0.124,0.034-0.182c0.108-0.299,0.437-0.453,0.735-0.346c16.549,6.106,31.875,33.895,32.515,35.072
			c0.133,0.24,0.074,0.541-0.139,0.713c-0.101,0.086-0.229,0.132-0.361,0.13C62.678,364.723,62.547,364.674,62.444,364.585z
			 M31.171,330.171c0.158,15.215,8.46,19.598,18.087,24.657c4.04,1.993,7.908,4.318,11.564,6.95
			C56.532,354.698,44.097,335.508,31.171,330.171L31.171,330.171z"/>
		<path style="fill:#E0E0E0;" d="M65.474,289.391c-7.904,6.199-10.035,26.408-10.035,26.408
			C61.035,306.552,69.709,302.15,65.474,289.391z"/>
		<path style="fill:#E0E0E0;" d="M55.29,316.096c-0.141-0.047-0.229-0.186-0.213-0.334c0.12-0.834,2.279-20.422,10.193-26.64
			c0.085-0.063,0.194-0.084,0.297-0.056c0.1,0.034,0.179,0.113,0.213,0.213c3.178,9.581-0.769,14.501-5.347,20.2
			c-1.716,2.056-3.295,4.222-4.726,6.486c-0.056,0.096-0.158,0.156-0.269,0.158C55.388,316.131,55.335,316.121,55.29,316.096z
			 M55.939,314.4c1.279-1.927,2.65-3.651,3.994-5.319c4.383-5.458,8.154-10.183,5.374-19.144
			C59.09,295.293,56.597,309.776,55.939,314.4z"/>
		<path style="fill:#E0E0E0;" d="M51.547,302.391c-2.016-1.632-4.129-3.139-6.329-4.513c-6.199-4.04-11.555-7.533-11.647-17.726
			c-0.004-0.108,0.049-0.21,0.139-0.269c0.093-0.046,0.203-0.046,0.296,0c9.498,3.327,17.698,21.405,18.05,22.174
			c0.057,0.138,0.015,0.297-0.102,0.389c-0.055,0.043-0.124,0.066-0.194,0.065C51.676,302.502,51.599,302.458,51.547,302.391z"/>
	</g>
	<g id="freepik--Earth--inject-158">
		
			<ellipse transform="matrix(0.1685 -0.9857 0.9857 0.1685 230.2123 459.1199)" style="fill:#F0F0F0;" cx="387.244" cy="93.104" rx="57.884" ry="57.884"/>
		<path style="fill:#E6E6E6;enable-background:new    ;" d="M345.513,133.23c5.152,5.405,11.336,9.721,18.187,12.691
			c7.962,3.607,16.647,5.331,25.383,5.04c-0.809-0.446-1.658-0.815-2.537-1.101c-0.509-0.173-0.48-0.816-0.993-0.998
			c-1.102-0.286-2.712-0.427-3.819-0.666c-0.859-0.182-1.817-0.008-2.576-0.15c-2.014-0.371-3.479-0.564-3.479-0.564l-1.005-0.711
			l-0.381-1.199l-1.168-0.829l-1.496-0.126l-1.099-0.777l-0.52-1.007l-1.362-1.122l-1.314,0.157l-1.11-0.413l-1.756,0.236
			l-0.576,0.618l-1.776,0.231l-0.65-0.667l-1.651-0.782l-2.816-3.782l-1.637-0.065l-2.742-2.151l-0.713-0.185l-1.074-0.846
			l-3.241-0.841l-1.032,0.299L345.513,133.23z"/>
		<path style="fill:#E6E6E6;enable-background:new    ;" d="M334.205,116.292l2.4,2.989l0.618,1.696l1.035,1.611l1.669,0.233
			l0.547,1.436l1.065,0.802l2.513-1.686l-0.595-1.787l0.308-2.784l-0.519-0.958l0.037-1.554l-0.916-1.67l-1.216-0.648l-0.461-0.888
			l-1.617-0.593l0.181-2.029l0.662-0.79l-0.187-0.291l0.301-0.358l0.603-0.189l0.985-1.128l0.078-5.099l0.689-1.267l-0.288-0.808
			l1.22-2.222l1.091-0.658l0.667-1.21l1.659-0.635l0.84-1.131l2.336-0.044l0.581-0.721l2.141-0.039l1.157,0.688l1.891-0.035
			l3.367-2.682l0.972-1.719l-0.659-1.326l1.624-1.592l0.565,0.223l0.591-1.05l3.967,1.03l1.033-0.514l0.63-0.909l0.796-0.402
			l1.031,0.081l1.256-0.629l0.841-3.241l-0.354-1.302l1.083-4.306l0.985-1.128l0.629-2.424l2.073-1.856l0.349,0.388l2.217-1.984
			l-0.738-2.115l1.003-3.199l-2.107-1.239l-0.411-0.653l-0.681,0.197l-0.72-1.225l0.088-1.084l-0.349-0.547l0.174-2.03l-1.677-0.387
			l-1.133-1.816l-2.421-0.137l-0.074,0.79l-3.373,0.335l-1.108-1.381l-1.773-0.1l-0.406-1.102l-1.543-0.055l-0.678,1.014
			l-1.739-0.099l-1.349-1.734l-1.375,1.566l-1.958-0.107l-0.304-0.695l-1.159-0.038l-0.848,0.603l-1.365-0.071l1.788-1.556
			l-0.196-1.137l1.556,0.404l0.703-1.374l-0.552-1.873l1.309-1.044l1.141-0.396l0.876,0.968l2.941-1.014l0.382-1.471l1.348-1.034
			l2.032,0.168l0.14-1.79l3.008-0.34l0.7,1.302l1.121,0.291l0.524-1.698l0.889-0.094l0.604-1.075l-2.021-0.718l1.942-0.471
			l-0.398-0.892l0.421-1.357c-9.322,3.211-17.376,7.479-23.312,13.527c-8.655,8.274-14.576,18.994-16.97,30.726
			C328.115,93.624,329.507,105.103,334.205,116.292z"/>
		<path style="fill:#E6E6E6;enable-background:new    ;" d="M401.605,144.029l-3.006-3.506l-0.012-1.152l-0.718-0.38l0.682-4.147
			l-0.97-1.407l-0.368-2.579l0.589-2.269l-1.083-1.319l2.695-4.891l1.678-1.695l1.335,0.188l0.875-0.894l0.096-1.622l2.715-2.755
			l1.955-7.532l-0.515-1.829l1.426-5.012l-0.866-0.716l-1.361,0.339l-3.834-3.168l0.313-1.205l-2.01-1.663l0.543-3.318l1.432-2.077
			l-0.727-2.264l0.798-4.94l4.672-3.872l2.045,0.918l1.059-1.842l-0.302-1.504l1.033,0.178l2.281-0.978l0.602-1.227l1.03-0.424
			l2.112,0.071l0.49,0.777l-0.629,0.715l0.673,1.06l3.479-0.342l6.908,4.277l0.955-5.224l-2.033-3.523l1.32-0.529l1.187,0.412
			l0.74-2.451l-3.992-1.279l-0.769-1.915l-2.011-0.647l-0.679-1.809l-1.83-0.946l0.129-2.921l-1.642-0.336l-0.25-1.116l-3.322-0.689
			l-1.012,0.858l-1.858-0.386l-0.336,1.905l-2.029-0.873l-0.94-1.711l-1.97-0.408l-1.051-2.853l-1.678-0.65l-0.798-1.591
			l1.225-1.066l-0.286-0.766l1.239-0.19l0.465-0.993l2.636,0.504l1.334-0.207l1.294,0.613l1.99-0.175l-0.403-0.873l0.613-0.097
			l-4.138-1.621l0.126-1.206l-1.094-0.768l1.03-1.116l-1.818-0.991l-2.419,1.323l-2.118-1.117l-2.441,0.342l-1.109,1.234
			l-0.996-0.162l-1.431,1.275l0.253,1.318l-1.054,1.235l-1.934-0.225l-0.893-1.304l-1.231,0.691l-0.805-2.548l0.317-0.609
			l-1.048-1.531l0.04-2.418l-1.708-0.028l2.335-1.878l-4.007-0.556l-0.382-0.556l-0.798,0.409l-0.96-1.287l0.986-0.256l-0.361-0.529
			c12.342,0.16,23.876,3.756,33.189,10.733c6.872,4.655,12.589,10.82,16.713,18.023l-1.01,2.851l1.945,1.729l0.483,3.868
			l-1.623,0.547l-0.509-1.931l-1.107,3.117l-2.018,0.659l1.648,2.981l-1.6,1.66l-1.082-0.281l-1.177,0.988l-0.288,3.613l4.657,5.567
			l0.177,2.17l1.215,1.955l0.132,3.037l-1.607,1.181l-0.862,0.655l-0.051,1.211l4.706,0.288l0.912,0.804l2.7,6.602l-0.439,3.477
			l-5.041,6.094l-2.795,0.105l-1.33,1.446l0.409,1.089l-6.044,6.574l-1.464,0.07l-1.831,1.988l-6.052,1.805l-0.188,2.137
			l-2.991,2.62l-4.022-1.003l-2.375,1.155l0.893,2.183l-0.394,3.011l-2.254,3.697l-0.871,0.051l-0.64,0.041l-0.534,0.885
			l-1.407,0.091L401.605,144.029z"/>
		<polygon style="fill:#E6E6E6;enable-background:new    ;" points="346.534,121.513 346.528,121.006 345.645,120.224 
			345.61,118.36 346.457,117.681 346.437,116.638 347.116,116.475 347.222,115.721 348.838,116.051 346.754,113.524 
			345.643,113.914 344.612,113.224 344.842,112.336 343.928,111.753 345.349,110.385 345.621,109.335 347.309,108.431 
			346.628,107.002 347.254,106.59 347.227,105.601 349.249,106.126 349.731,106.963 351.732,109.275 351.949,110.812 
			352.531,111.821 352.556,112.574 353.208,113.235 353.265,115.228 352.644,115.517 352.655,116.004 352.041,116.986 
			350.975,120.584 349.755,120.647 349.211,121.516 		"/>
		<polygon style="fill:#E6E6E6;enable-background:new    ;" points="371.173,44.675 371.789,43.956 372.977,41.165 373.757,41.651 
			374.075,41.277 373.193,40.01 373.855,39.061 373.797,38.458 374.969,37.835 377.237,38.424 378.038,38.431 378.503,38.877 
			380.516,38.452 380.543,39.282 381.45,39.518 380.611,41.417 379.812,42.31 380.127,43.284 377.021,45.439 376.468,46.049 
			373.989,45.925 373.64,46.816 372.561,47.11 		"/>
		<polygon style="fill:#E6E6E6;enable-background:new    ;" points="399.714,49.835 400.744,49.065 402.559,49.536 402.096,51.319 
			400.337,52.765 399.251,51.618 		"/>
		<polygon style="fill:#E6E6E6;enable-background:new    ;" points="414.573,60.791 415.089,60.379 415.352,59.79 416.075,59.216 
			416.615,59.163 417.193,58.697 417.5,59.379 418.477,59.771 418.631,61.845 420.523,61.831 420.626,63.38 420.044,63.678 
			419.896,64.249 418.288,63.831 417.392,64.325 417.726,64.799 417.365,65.017 417.541,65.27 416.495,65.808 416.357,65.62 
			415.994,65.844 415.213,65.523 414.446,65.947 414.084,65.556 413.532,65.71 413.188,64.583 411.684,64.192 411.421,63.82 
			410.624,63.613 409.41,61.921 409.52,61.175 409.094,60.579 409.729,59.997 410.6,60.106 411.285,60.533 411.805,60.474 
			412.566,60.796 412.983,61.589 413.381,61.388 413.863,61.555 		"/>
		<polygon style="fill:#E6E6E6;enable-background:new    ;" points="436.883,80.6 439.658,79.93 441.84,81.015 443.124,83.555 
			442.794,84.639 443.22,85.531 442.747,87.352 442.001,87.214 441.329,88.153 438.898,87.522 439.529,85.092 437.633,84.212 
			437.624,81.851 		"/>
		<polygon style="fill:#E6E6E6;enable-background:new    ;" points="406.092,57.033 407.632,58.643 406.917,61.398 404.704,62.38 
			404.449,61.92 403.768,61.826 403.211,59.682 402.858,59.044 403.326,58.757 403.598,58.06 405.025,57.171 405.762,57.238 		"/>
		<polygon style="fill:#E6E6E6;enable-background:new    ;" points="363.832,46.062 366.863,45.631 368.018,46.54 368.351,50.002 
			367.604,49.974 366.288,50.698 364.481,50.624 363.92,49.828 362.865,49.789 360.729,48.024 362.014,46.192 363.079,46.538 		"/>
		<polygon style="fill:#E6E6E6;enable-background:new    ;" points="386.086,38.342 388.187,39.579 389.009,42.407 386.727,43.524 
			383.726,42.745 384.567,39.504 		"/>
	</g>
</g>
<g id="Background_simple" style="display:none;">
	<g style="display:inline;">
		<path style="fill:#407BFF;" d="M417.653,159.857c-5.428-16.705-15.931-32.534-31.812-46.221
			c-18.717-16.132-47.388-32.107-83.396-25.016c-66.476,13.09-65.261,58.812-110.786,52.098
			c-51.567-7.605-111.04,2.512-125.21,49.733c-26.914,89.69,163.703,186.209,263.733,150.909
			C392.457,319.384,446.473,248.56,417.653,159.857z"/>
		<path style="opacity:0.9;fill:#FFFFFF;" d="M417.653,159.857c-5.428-16.705-15.931-32.534-31.812-46.221
			c-18.717-16.132-47.388-32.107-83.396-25.016c-66.476,13.09-65.261,58.812-110.786,52.098
			c-51.567-7.605-111.04,2.512-125.21,49.733c-26.914,89.69,163.703,186.209,263.733,150.909
			C392.457,319.384,446.473,248.56,417.653,159.857z"/>
	</g>
</g>
<g id="Shadow">
	<g>
		<g>
			<path style="fill:#F5F5F5;" d="M427.834,465.091c0,3.387-83.489,6.132-186.479,6.132s-186.479-2.745-186.479-6.132
				c0-3.387,83.49-6.132,186.479-6.132S427.834,461.704,427.834,465.091z"/>
		</g>
	</g>
</g>
<g id="Plane">
	<g id="freepik--Plane--inject-2">
		<polygon style="fill:#407BFF;" points="148.322,56.315 160.648,53.869 165.275,54.779 157.322,59.534 		"/>
		<polygon style="opacity:0.3;enable-background:new    ;" points="148.322,56.315 160.648,53.869 165.275,54.779 157.322,59.534 		
			"/>
		<path style="fill:#407BFF;" d="M81.054,40.428l18.686-7.504c2.748-1.097,5.754-1.379,8.658-0.812l3.581,0.695l-9.675,12.15
			L81.054,40.428z"/>
		<path style="opacity:0.3;enable-background:new    ;" d="M81.054,40.428l18.686-7.504c2.748-1.097,5.754-1.379,8.658-0.812
			l3.581,0.695l-9.675,12.15L81.054,40.428z"/>
		<path style="fill:#407BFF;" d="M50.141,37.139c-0.865,1.086-0.687,2.668,0.399,3.533c2.424,2.09,5.35,3.513,8.492,4.128
			l95.873,18.774l3.698-2.641l-0.89-4.08L62.965,35.331c-2.817-0.598-5.736-0.528-8.521,0.205l-2.876,0.714
			C51.004,36.374,50.5,36.688,50.141,37.139z"/>
		
			<rect x="129.935" y="49.433" transform="matrix(0.2079 -0.9781 0.9781 0.2079 34.0311 183.3002)" style="fill:#407BFF;" width="0.519" height="42.409"/>
		
			<rect x="128.075" y="28.629" transform="matrix(0.2079 -0.9781 0.9781 0.2079 60.1325 159.1521)" style="fill:#407BFF;" width="0.519" height="27.637"/>
		
			<rect x="163.979" y="72.201" transform="matrix(0.2079 -0.9781 0.9781 0.2079 53.9122 222.3368)" style="fill:#407BFF;" width="0.519" height="11.358"/>
		<path style="opacity:0.3;enable-background:new    ;" d="M54.16,43.04l0.352,0.166c1.435,0.697,2.954,1.207,4.52,1.516
			l95.873,18.764c0.454,0.094,0.92,0.111,1.379,0.049c-0.377-0.226-0.791-0.385-1.223-0.47L61.429,43.118
			C59.036,42.605,56.564,42.579,54.16,43.04z"/>
		<polygon style="fill:#407BFF;" points="147.96,59.113 156.383,70.109 161.01,71.019 158.603,60.854 		"/>
		<polygon style="fill:#407BFF;" points="146.561,54.593 159.014,45.759 163.329,46.611 157.713,56.775 		"/>
		<path style="fill:#407BFF;" d="M77.923,44.644L92.549,70.97c2.196,3.957,6.027,6.742,10.468,7.611l0,0l-1.555-29.349
			L77.923,44.644z"/>
		<g style="opacity:0.5;">
			
				<rect x="125.065" y="53.399" transform="matrix(0.2009 -0.9796 0.9796 0.2009 47.9217 166.7469)" style="fill:#FFFFFF;" width="2.201" height="1.203"/>
			
				<rect x="122.683" y="52.945" transform="matrix(0.2008 -0.9796 0.9796 0.2008 46.4763 164.0593)" style="fill:#FFFFFF;" width="2.201" height="1.203"/>
			
				<rect x="120.296" y="52.456" transform="matrix(0.2008 -0.9796 0.9796 0.2008 45.0456 161.329)" style="fill:#FFFFFF;" width="2.201" height="1.203"/>
			
				<rect x="117.909" y="51.967" transform="matrix(0.2007 -0.9797 0.9797 0.2007 43.6253 158.6061)" style="fill:#FFFFFF;" width="2.201" height="1.203"/>
			
				<rect x="115.522" y="51.478" transform="matrix(0.2007 -0.9797 0.9797 0.2007 42.1962 155.877)" style="fill:#FFFFFF;" width="2.201" height="1.203"/>
			
				<rect x="113.135" y="50.989" transform="matrix(0.2007 -0.9797 0.9797 0.2007 40.7671 153.1478)" style="fill:#FFFFFF;" width="2.201" height="1.203"/>
			
				<rect x="110.738" y="50.499" transform="matrix(0.2007 -0.9797 0.9797 0.2007 39.3338 150.4089)" style="fill:#FFFFFF;" width="2.201" height="1.203"/>
			
				<rect x="108.347" y="49.973" transform="matrix(0.2009 -0.9796 0.9796 0.2009 37.9124 147.6276)" style="fill:#FFFFFF;" width="2.201" height="1.203"/>
			
				<rect x="105.964" y="49.521" transform="matrix(0.2008 -0.9796 0.9796 0.2008 36.4678 144.9449)" style="fill:#FFFFFF;" width="2.201" height="1.203"/>
			
				<rect x="103.579" y="49.023" transform="matrix(0.2008 -0.9796 0.9796 0.2008 35.0483 142.209)" style="fill:#FFFFFF;" width="2.201" height="1.203"/>
			
				<rect x="101.187" y="48.518" transform="matrix(0.2007 -0.9796 0.9796 0.2007 33.631 139.4704)" style="fill:#FFFFFF;" width="2.201" height="1.213"/>
			
				<rect x="98.805" y="48.045" transform="matrix(0.2007 -0.9797 0.9797 0.2007 32.199 136.7575)" style="fill:#FFFFFF;" width="2.201" height="1.203"/>
			
				<rect x="96.415" y="47.518" transform="matrix(0.2009 -0.9796 0.9796 0.2009 30.7831 133.9766)" style="fill:#FFFFFF;" width="2.201" height="1.203"/>
			
				<rect x="94.017" y="47.05" transform="matrix(0.2007 -0.9796 0.9796 0.2007 29.3381 131.2721)" style="fill:#FFFFFF;" width="2.201" height="1.213"/>
			
				<rect x="91.63" y="46.571" transform="matrix(0.2007 -0.9796 0.9796 0.2007 27.8995 128.5508)" style="fill:#FFFFFF;" width="2.201" height="1.213"/>
			
				<rect x="89.248" y="46.088" transform="matrix(0.2008 -0.9796 0.9796 0.2008 26.4689 125.8237)" style="fill:#FFFFFF;" width="2.201" height="1.203"/>
			
				<rect x="86.856" y="45.584" transform="matrix(0.2007 -0.9796 0.9796 0.2007 25.051 123.0848)" style="fill:#FFFFFF;" width="2.201" height="1.213"/>
			
				<rect x="84.469" y="45.105" transform="matrix(0.2007 -0.9796 0.9796 0.2007 23.6123 120.3635)" style="fill:#FFFFFF;" width="2.201" height="1.213"/>
			
				<rect x="82.086" y="44.622" transform="matrix(0.2007 -0.9797 0.9797 0.2007 22.1893 117.6425)" style="fill:#FFFFFF;" width="2.201" height="1.203"/>
			
				<rect x="79.688" y="44.089" transform="matrix(0.2009 -0.9796 0.9796 0.2009 20.7753 114.8514)" style="fill:#FFFFFF;" width="2.201" height="1.203"/>
			
				<rect x="77.298" y="43.636" transform="matrix(0.2007 -0.9796 0.9796 0.2007 19.3194 112.1652)" style="fill:#FFFFFF;" width="2.201" height="1.213"/>
			
				<rect x="74.906" y="43.154" transform="matrix(0.2007 -0.9797 0.9797 0.2007 17.8872 109.4336)" style="fill:#FFFFFF;" width="2.201" height="1.203"/>
		</g>
		<path style="opacity:0.5;fill:#FFFFFF;enable-background:new    ;" d="M50.902,36.514l8.531,1.732
			c0.594,0.116,1.17-0.271,1.286-0.866c0.116-0.594-0.271-1.17-0.866-1.286l-4.236-0.822c-0.401,0.069-0.792,0.166-1.174,0.264
			l-2.876,0.714C51.334,36.306,51.11,36.395,50.902,36.514z"/>
	</g>
</g>
<g id="Speech_Bubble">
	<g>
		<g>
			<g>
				<path style="fill:#407BFF;" d="M440.252,185.939c3.812-10.454-1.572-22.019-12.026-25.831
					c-10.454-3.812-22.019,1.572-25.831,12.026c-2.943,8.071-0.389,16.788,5.732,22.105l0.083,6.051l5.904-2.454
					c0.105,0.04,0.202,0.092,0.308,0.13C424.875,201.778,436.44,196.393,440.252,185.939z"/>
			</g>
			<path style="fill:none;stroke:#407BFF;stroke-width:0.5;stroke-linecap:round;stroke-linejoin:round;stroke-miterlimit:10;" d="
				M432.785,159.258c5.859,2.929,10.046,8.971,10.73,15.485"/>
			<path style="fill:none;stroke:#407BFF;stroke-width:0.5;stroke-linecap:round;stroke-linejoin:round;stroke-miterlimit:10;" d="
				M443.723,177.743c0.178,0.983,0.15,2.003-0.082,2.975"/>
		</g>
		<g>
			<polygon style="fill:#FFFFFF;" points="421.003,187.869 411.768,180.992 414.168,177.77 420.36,182.381 428.868,172.231 
				431.947,174.811 			"/>
		</g>
	</g>
</g>
<g id="Insurance">
	<g>
		<path style="fill:#407BFF;" d="M361.886,460.185H106.425c-4.102,0-7.427-3.325-7.427-7.427V90.878
			c0-4.102,3.325-7.427,7.427-7.427h255.461c4.102,0,7.427,3.325,7.427,7.427v361.879
			C369.313,456.86,365.988,460.185,361.886,460.185z"/>
		<rect x="108.817" y="121.022" style="opacity:0.3;" width="250.677" height="325.073"/>
		<g>
			<rect x="109.271" y="97.284" style="fill:#FFFFFF;" width="250.677" height="338.877"/>
			<path style="fill:#407BFF;" d="M160.395,150.942h-18.299c-2.455,0-4.445-1.99-4.445-4.445v-18.299
				c0-2.455,1.99-4.445,4.445-4.445h18.299c2.455,0,4.445,1.99,4.445,4.445v18.299C164.84,148.952,162.85,150.942,160.395,150.942z"
				/>
			<g>
				<path style="fill:#263238;" d="M175.848,133.481h-3.137v-1.849h8.542v1.849h-3.137v7.954h-2.269V133.481z"/>
				<path style="fill:#263238;" d="M188.718,141.436l-1.891-2.731h-0.112h-1.974v2.731h-2.269v-9.803h4.243
					c0.869,0,1.622,0.145,2.262,0.434c0.64,0.29,1.132,0.7,1.478,1.232c0.345,0.532,0.518,1.162,0.518,1.891
					c0,0.728-0.175,1.356-0.525,1.883c-0.35,0.528-0.848,0.931-1.492,1.212l2.199,3.151H188.718z M188.144,133.922
					c-0.355-0.294-0.873-0.441-1.555-0.441h-1.848v3.417h1.848c0.682,0,1.2-0.149,1.555-0.448c0.354-0.299,0.532-0.719,0.532-1.26
					C188.676,134.639,188.498,134.217,188.144,133.922z"/>
				<path style="fill:#263238;" d="M199.22,139.335h-4.551l-0.868,2.1h-2.325l4.369-9.803h2.241l4.383,9.803h-2.381L199.22,139.335z
					 M198.506,137.612l-1.554-3.753l-1.555,3.753H198.506z"/>
				<path style="fill:#263238;" d="M212.384,131.633l-4.243,9.803H205.9l-4.229-9.803h2.451l2.983,7.002l3.025-7.002H212.384z"/>
				<path style="fill:#263238;" d="M220.785,139.615v1.82h-7.589v-9.803h7.408v1.82h-5.153v2.129h4.551v1.764h-4.551v2.269H220.785z
					"/>
				<path style="fill:#263238;" d="M222.592,131.633h2.269v7.954h4.916v1.849h-7.185V131.633z"/>
				<path style="fill:#263238;" d="M235.013,131.633h2.269v9.803h-2.269V131.633z"/>
				<path style="fill:#263238;" d="M248.596,131.633v9.803h-1.862l-4.887-5.952v5.952h-2.241v-9.803h1.877l4.873,5.952v-5.952
					H248.596z"/>
				<path style="fill:#263238;" d="M251.895,141.289c-0.724-0.21-1.305-0.483-1.743-0.819l0.77-1.708
					c0.42,0.308,0.92,0.556,1.499,0.742c0.578,0.187,1.157,0.28,1.736,0.28c0.643,0,1.12-0.096,1.428-0.287
					c0.309-0.191,0.463-0.446,0.463-0.763c0-0.233-0.092-0.427-0.274-0.581c-0.182-0.154-0.415-0.278-0.7-0.371
					c-0.285-0.093-0.67-0.196-1.155-0.308c-0.747-0.177-1.358-0.355-1.835-0.532c-0.476-0.177-0.884-0.462-1.225-0.854
					c-0.341-0.392-0.512-0.915-0.512-1.568c0-0.569,0.154-1.085,0.462-1.547c0.309-0.462,0.773-0.829,1.393-1.099
					c0.621-0.271,1.38-0.406,2.276-0.406c0.625,0,1.236,0.075,1.834,0.224c0.598,0.149,1.12,0.364,1.568,0.644l-0.7,1.723
					c-0.905-0.514-1.812-0.77-2.717-0.77c-0.635,0-1.104,0.103-1.407,0.308c-0.304,0.205-0.455,0.476-0.455,0.813
					c0,0.336,0.175,0.586,0.525,0.749c0.35,0.164,0.884,0.325,1.604,0.483c0.746,0.177,1.358,0.355,1.834,0.532
					c0.477,0.178,0.885,0.457,1.226,0.84c0.341,0.383,0.511,0.901,0.511,1.555c0,0.56-0.156,1.071-0.469,1.533
					c-0.313,0.462-0.782,0.829-1.407,1.099c-0.626,0.271-1.387,0.406-2.283,0.406C253.367,141.604,252.618,141.499,251.895,141.289z
					"/>
				<path style="fill:#263238;" d="M260.941,140.441c-0.78-0.775-1.17-1.881-1.17-3.319v-5.49h2.269v5.406
					c0,1.755,0.729,2.632,2.185,2.632c0.71,0,1.251-0.212,1.625-0.637c0.373-0.424,0.56-1.09,0.56-1.995v-5.406h2.241v5.49
					c0,1.438-0.391,2.544-1.17,3.319c-0.779,0.775-1.869,1.162-3.27,1.162C262.81,141.604,261.721,141.216,260.941,140.441z"/>
				<path style="fill:#263238;" d="M277.137,141.436l-1.891-2.731h-0.112h-1.975v2.731h-2.269v-9.803h4.243
					c0.868,0,1.622,0.145,2.262,0.434c0.64,0.29,1.132,0.7,1.477,1.232c0.346,0.532,0.519,1.162,0.519,1.891
					c0,0.728-0.176,1.356-0.525,1.883c-0.351,0.528-0.848,0.931-1.491,1.212l2.198,3.151H277.137z M276.563,133.922
					c-0.355-0.294-0.873-0.441-1.555-0.441h-1.849v3.417h1.849c0.682,0,1.199-0.149,1.555-0.448c0.354-0.299,0.532-0.719,0.532-1.26
					C277.095,134.639,276.917,134.217,276.563,133.922z"/>
				<path style="fill:#263238;" d="M287.64,139.335h-4.552l-0.868,2.1h-2.324l4.369-9.803h2.24l4.384,9.803h-2.381L287.64,139.335z
					 M286.926,137.612l-1.555-3.753l-1.555,3.753H286.926z"/>
				<path style="fill:#263238;" d="M300.9,131.633v9.803h-1.862l-4.887-5.952v5.952h-2.241v-9.803h1.877l4.873,5.952v-5.952H300.9z"
					/>
				<path style="fill:#263238;" d="M305.207,140.953c-0.808-0.435-1.442-1.037-1.904-1.807c-0.462-0.77-0.693-1.641-0.693-2.612
					c0-0.971,0.231-1.841,0.693-2.612c0.462-0.77,1.097-1.372,1.904-1.806c0.808-0.435,1.716-0.651,2.724-0.651
					c0.85,0,1.618,0.15,2.304,0.448c0.686,0.299,1.263,0.728,1.729,1.288l-1.456,1.345c-0.663-0.766-1.484-1.148-2.465-1.148
					c-0.607,0-1.148,0.133-1.624,0.399c-0.477,0.266-0.848,0.637-1.113,1.113c-0.267,0.476-0.399,1.018-0.399,1.624
					c0,0.607,0.133,1.148,0.399,1.625c0.266,0.476,0.637,0.847,1.113,1.113c0.476,0.266,1.018,0.399,1.624,0.399
					c0.98,0,1.802-0.387,2.465-1.162l1.456,1.344c-0.467,0.57-1.045,1.004-1.736,1.302c-0.69,0.299-1.461,0.448-2.31,0.448
					C306.918,141.604,306.015,141.387,305.207,140.953z"/>
				<path style="fill:#263238;" d="M321.08,139.615v1.82h-7.59v-9.803h7.408v1.82h-5.153v2.129h4.551v1.764h-4.551v2.269H321.08z"/>
			</g>
			<rect x="137.65" y="166.065" style="fill:#E0E0E0;" width="193.01" height="10.426"/>
			<rect x="137.65" y="240.081" style="fill:#E0E0E0;" width="193.01" height="10.426"/>
			<rect x="137.65" y="405.664" style="fill:#E0E0E0;" width="193.01" height="10.426"/>
			<path style="fill:none;stroke:#263238;stroke-miterlimit:10;" d="M137.65,191.066c64.337,0,128.674,0,193.01,0"/>
			<path style="fill:none;stroke:#263238;stroke-miterlimit:10;" d="M137.65,207.202c64.337,0,128.674,0,193.01,0"/>
			<path style="fill:none;stroke:#263238;stroke-miterlimit:10;" d="M137.65,223.338c64.337,0,128.674,0,193.01,0"/>
			<path style="fill:none;stroke:#263238;stroke-miterlimit:10;" d="M137.65,269.711c64.337,0,128.674,0,193.01,0"/>
			<path style="fill:none;stroke:#263238;stroke-miterlimit:10;" d="M173.22,290.568c52.48,0,104.961,0,157.441,0"/>
			<path style="fill:none;stroke:#263238;stroke-miterlimit:10;" d="M173.22,305.275c52.48,0,104.961,0,157.441,0"/>
			<rect x="139.758" y="283.386" style="fill:none;stroke:#263238;stroke-miterlimit:10;" width="25.474" height="25.474"/>
			<path style="fill:none;stroke:#263238;stroke-miterlimit:10;" d="M173.22,330.247c52.48,0,104.961,0,157.441,0"/>
			<path style="fill:none;stroke:#263238;stroke-miterlimit:10;" d="M173.22,344.954c52.48,0,104.961,0,157.441,0"/>
			<rect x="139.758" y="323.065" style="fill:none;stroke:#263238;stroke-miterlimit:10;" width="25.474" height="25.474"/>
			<path style="fill:none;stroke:#263238;stroke-miterlimit:10;" d="M173.22,369.927c52.48,0,104.961,0,157.441,0"/>
			<path style="fill:none;stroke:#263238;stroke-miterlimit:10;" d="M173.22,384.633c52.48,0,104.961,0,157.441,0"/>
			<rect x="139.758" y="362.744" style="fill:none;stroke:#263238;stroke-miterlimit:10;" width="25.474" height="25.474"/>
			<g>
				<path style="fill:#FFFFFF;" d="M140.784,132.811c1.272-1.483,4.578-0.551,6.843,0.663c0,0,1.559,0.735,2.139,1.116
					c0.006,0.001,0.012,0.003,0.019,0.005l5.297-0.662c0.43-0.054,0.867,0.023,1.253,0.22l0.434,0.221
					c0.219,0.112,0.208,0.429-0.018,0.525l-3.9,1.667c-0.002,0.022-0.002,0.026-0.004,0.048c2.074,1.363,3.85,2.529,3.85,2.529
					c0.019,0.013,0.038,0.026,0.058,0.038c0.725,0.463,1.6,0.639,2.452,0.487l2.062-0.369c0.104-0.019,0.214-0.014,0.312,0.026
					c0.366,0.15,0.437,0.632,0.138,0.882l-2.388,1.997c-0.374,0.313-0.895,0.382-1.338,0.178l-1.118-0.515l-5.659-2.694l0.649,3.222
					c0.024,0.133-0.081,0.254-0.216,0.249l-0.267-0.01c-0.365-0.014-0.698-0.214-0.88-0.531l-2.281-4.355l-6.676-3.179
					C140.657,134.161,140.339,133.398,140.784,132.811z"/>
			</g>
			<g>
				<polygon style="fill:#407BFF;" points="155.77,306.235 141.828,295.853 145.451,290.988 154.8,297.95 167.645,282.625 
					172.293,286.522 				"/>
			</g>
			<g>
				<polygon style="fill:#407BFF;" points="155.77,345.059 141.828,334.677 145.451,329.812 154.8,336.774 167.645,321.449 
					172.293,325.346 				"/>
			</g>
			<g>
				<polygon style="fill:#407BFF;" points="155.77,383.883 141.828,373.501 145.451,368.636 154.8,375.597 167.645,360.273 
					172.293,364.169 				"/>
			</g>
		</g>
		<g>
			<g>
				<rect x="191.281" y="76.934" style="fill:#263238;" width="85.749" height="32.341"/>
				<polygon style="fill:#263238;" points="261.305,80.198 211.161,80.198 205.569,55.571 268.167,55.571 				"/>
			</g>
			<path style="opacity:0.3;" d="M263.051,55.571c-0.058,0.152-6.679,21.083-6.516,21.083s5.69,0,5.69,0l6.024-21.083H263.051z"/>
			<path style="opacity:0.3;" d="M271.493,76.934c0,0-0.414,32.341,0,32.341c0.414,0,5.537,0,5.537,0V76.934H271.493z"/>
		</g>
	</g>
</g>
<g id="Character">
	<g>
		<g>
			<path style="fill:#B97964;" d="M353.679,237.657l-19.661,40.656l-23.462,24.848l5.197,4.473c0,0,22.551-15.498,28.838-24.076
				c5.874-8.014,16.85-34.024,16.85-34.024L353.679,237.657z"/>
			<g>
				<g>
					<path style="fill:#B97964;" d="M310.556,303.161c-2.95,0.331-4.829-0.452-8.242-1.384c-0.413-0.113-1.189-0.469-1.616-0.486
						c-0.428-0.016-0.903,0.221-1.006,0.642c-0.103,0.42,0.287,1.114,0.577,1.428c0.863,0.935,2.207,1.5,3.354,2.04
						c-1.112,0.649-2.478,1.472-3.191,2.552c-0.374,0.567-0.689,1.222-0.628,1.897c0.061,0.675,0.626,1.334,1.295,1.274
						c0.043,1.098,0.918,2.098,1.991,2.274c0.265,0.79,0.807,1.629,1.633,1.674c0.285,0.016,0.585-0.067,0.85,0.037
						c0.247,0.098,0.407,0.337,0.613,0.505c0.688,0.559,1.707,0.241,2.522-0.118c3.265-1.438,4.884-4.997,7.045-7.863"/>
				</g>
				<g>
					<path d="M302.295,308.152c4.449,0.005,8.054,3.61,8.059,8.059v92.824c-0.005,4.449-3.61,8.054-8.059,8.059H293.7
						c-4.449-0.005-8.054-3.61-8.059-8.059v-92.824c0.005-4.449,3.61-8.054,8.059-8.059H302.295 M302.295,306.604H293.7
						c-5.3,0.014-9.592,4.307-9.607,9.607v92.824c0.014,5.3,4.307,9.592,9.607,9.607h8.595c5.3-0.014,9.592-4.307,9.607-9.607
						v-92.824C311.888,310.911,307.595,306.619,302.295,306.604z"/>
					<circle cx="319.587" cy="466.65" r="3.642"/>
					<path d="M310.417,466.65c0.029,2.016-1.582,3.673-3.598,3.702c-2.016,0.029-3.673-1.582-3.702-3.598
						c-0.029-2.016,1.582-3.673,3.598-3.702c0.009,0,0.017,0,0.026,0C308.747,463.037,310.389,464.644,310.417,466.65z"/>
					<path d="M289.454,466.65c0,2.011-1.63,3.642-3.642,3.642c-2.011,0-3.642-1.631-3.642-3.642c0-2.011,1.63-3.642,3.642-3.642
						C287.821,463.013,289.449,464.64,289.454,466.65z"/>
					<circle cx="272.992" cy="466.65" r="3.642"/>
					<path style="fill:#407BFF;" d="M325.417,464.339h-51.847c-2.635,0-4.77-2.136-4.77-4.77V373.77c0-2.634,2.136-4.77,4.77-4.77
						h51.847c2.635,0,4.77,2.136,4.77,4.77v85.799C330.188,462.203,328.052,464.339,325.417,464.339z"/>
					<path style="opacity:0.5;" d="M325.417,464.339h-51.847c-2.635,0-4.77-2.136-4.77-4.77V373.77c0-2.634,2.136-4.77,4.77-4.77
						h51.847c2.635,0,4.77,2.136,4.77,4.77v85.799C330.188,462.203,328.052,464.339,325.417,464.339z"/>
					<path style="fill:#407BFF;" d="M313.697,464.339h-46.048c-2.634,0-4.77-2.136-4.77-4.77V373.77c0-2.634,2.136-4.77,4.77-4.77
						h46.048c2.635,0,4.77,2.136,4.77,4.77v85.799C318.467,462.203,316.332,464.339,313.697,464.339z"/>
					<path style="opacity:0.3;" d="M313.697,464.339h-46.048c-2.634,0-4.77-2.136-4.77-4.77V373.77c0-2.634,2.136-4.77,4.77-4.77
						h46.048c2.635,0,4.77,2.136,4.77,4.77v85.799C318.467,462.203,316.332,464.339,313.697,464.339z"/>
					<path style="opacity:0.3;fill:#FFFFFF;" d="M274.031,455.14L274.031,455.14c-1.292,0-2.34-1.048-2.34-2.34v-68.316
						c0-1.292,1.048-2.34,2.34-2.34l0,0c1.292,0,2.34,1.048,2.34,2.34V452.8C276.371,454.093,275.323,455.14,274.031,455.14z"/>
					<path style="opacity:0.3;fill:#FFFFFF;" d="M285.356,455.14L285.356,455.14c-1.292,0-2.34-1.048-2.34-2.34v-68.316
						c0-1.292,1.048-2.34,2.34-2.34l0,0c1.292,0,2.34,1.048,2.34,2.34V452.8C287.696,454.093,286.648,455.14,285.356,455.14z"/>
					<path style="opacity:0.3;fill:#FFFFFF;" d="M296.681,455.14L296.681,455.14c-1.292,0-2.34-1.048-2.34-2.34v-68.316
						c0-1.292,1.048-2.34,2.34-2.34l0,0c1.292,0,2.34,1.048,2.34,2.34V452.8C299.021,454.093,297.973,455.14,296.681,455.14z"/>
					<path style="opacity:0.3;fill:#FFFFFF;" d="M308.006,455.14L308.006,455.14c-1.292,0-2.34-1.048-2.34-2.34v-68.316
						c0-1.292,1.048-2.34,2.34-2.34l0,0c1.293,0,2.34,1.048,2.34,2.34V452.8C310.346,454.093,309.299,455.14,308.006,455.14z"/>
				</g>
				<g style="opacity:0.3;">
					<path d="M302.692,305.815c3.005-0.267,6.102,1.243,7.742,3.776c0.282,0.435,0.531,0.961,0.378,1.457
						c-0.153,0.496-0.655,0.79-1.128,1.004c-0.653,0.296-0.072-0.629-0.766-0.451c-0.359,0.092-1.161-0.362-1.522-0.446
						c-0.454-0.106-0.696-0.322-1.015-0.661c-1.142-1.214-3.049-1.032-3.776-2.531"/>
				</g>
				<path style="fill:#B97964;" d="M309.439,314.304c0.455-0.208,0.926-0.428,1.252-0.807c0.327-0.379,0.469-0.966,0.196-1.386
					c-0.193-0.297-0.555-0.452-0.909-0.469c-0.354-0.017-0.702,0.086-1.033,0.212c-0.474,0.181-0.93,0.411-1.357,0.687
					c0.365-0.247,0.735-0.498,1.017-0.837c0.281-0.339,0.467-0.783,0.399-1.218c-0.03-0.191-0.112-0.379-0.258-0.506
					c-0.282-0.246-0.71-0.204-1.072-0.108c-0.776,0.204-1.504,0.587-2.113,1.11c0.26-0.361,0.607-0.649,0.923-0.961
					c0.316-0.313,0.613-0.669,0.73-1.099c0.117-0.429,0.01-0.945-0.353-1.202c-0.357-0.253-0.821-0.311-1.24-0.185
					c-0.649,0.195-1.264,0.501-1.812,0.9c0.507-0.376,0.947-0.842,1.291-1.371c0.093-0.142,0.181-0.298,0.185-0.467
					c0.007-0.33-0.307-0.579-0.617-0.691c-0.615-0.22-1.308-0.116-1.906,0.145c-0.598,0.261-1.731,1.013-2.479,2.144
					c0,0,1.344,1.315,1.457,1.391c0.113,0.076,6.376,4.452,6.376,4.452L309.439,314.304z"/>
			</g>
		</g>
		<line style="fill:none;stroke:#407BFF;stroke-miterlimit:10;" x1="425.62" y1="325.572" x2="397.735" y2="253.926"/>
		<g>
			<g>
				<path style="fill:#407BFF;" d="M446.864,362.457c-7.444-1.61-15.185-0.814-22.719,0.31
					c-14.304,2.134-28.555,5.465-41.634,11.638c-15.841,2.103-37.888,2.148-42.019,8.134c40.901,16.74,89.266-1.149,107.795-12.458
					c1.526-0.931,3.204-2.253,3.103-4.038C451.272,363.972,448.891,362.896,446.864,362.457z"/>
			</g>
			<g style="opacity:0.2;">
				<path d="M446.864,362.457c-7.444-1.61-15.185-0.814-22.719,0.31c-14.304,2.134-28.555,5.465-41.634,11.638
					c-15.841,2.103-37.888,2.148-42.019,8.134c40.901,16.74,89.266-1.149,107.795-12.458c1.526-0.931,3.204-2.253,3.103-4.038
					C451.272,363.972,448.891,362.896,446.864,362.457z"/>
			</g>
		</g>
		<path style="fill:#B97964;" d="M398.852,237.657c0,0,3.033,0.815,5.922,6.833c1.993,4.15,12.466,27.923,13.28,31.97
			c1.271,6.319,1.824,42.509,1.824,42.509h-6.523c0,0-6.463-38.383-6.593-38.773c-0.13-0.39-14.401-28.744-14.401-28.744
			L398.852,237.657z"/>
		<g>
			<path style="fill:#B97964;" d="M427.215,398.405c-2.724-4.575-7.506-9.087-9.286-12.9c-1.563-3.305-1.378-5.897-4.024-13.777
				c-3.173-9.545-8.187-22-14.796-30.426c0,0,4.566-14.463-6.934-25.902l-7.555-7.192l-28.777,7.918l43.7,74.069l41.498,61.006
				l7.772-3.323C444.14,433.691,434.758,411.731,427.215,398.405z"/>
			<path style="opacity:0.2;" d="M412.24,366.115l-18.723,10.962v2.969l1.487,2.459l1.648,2.793c0,0,3.886-2.652,7.951-5.251
				c4.065-2.599,9.969-6.253,9.969-6.253L412.24,366.115z"/>
			<g>
				<path d="M443.697,472.635c0.455-1.311,1.143-2.595,2.029-3.789l0,0c0,0,1.283-5.221-3.232-14.065l3.652-4.442
					c1.28-1.497,3.212-2.312,4.857-2.05c0.23,0.039,0.445,0.109,0.638,0.21c0.86,0.621,1.663,1.304,2.405,2.045
					c2.468,2.567,4.729,5.318,6.771,8.239l-0.808,0.681l-4.51-4.958c-1.466-1.739-1.648,1.872-0.622,4.182
					c1.026,2.31,1.622,5.282-3.407,9.522C445.699,473.109,443.098,474.97,443.697,472.635z"/>
				<path style="fill:#B97964;" d="M439.685,448.663c0,0,3.27,6.978,4.833,12.06c0.971,2.479,1.363,5.251,1.157,8.167
					c0,0,4.226-2.615,4.296-5.916c0.07-3.301-3.074-11.821,1.064-14.645c-0.695-0.243-1.441-0.395-2.225-0.452l-1.235-2.547
					C445.233,446.307,439.685,448.663,439.685,448.663z"/>
			</g>
		</g>
		<g>
			<path style="fill:#B97964;" d="M392.768,254.123l7.354-15.354c-3.314-4.946-19.712-8.747-19.712-8.747l-10.804,0.591
				c0,0-4.152,0.926-7.707,2.086c-4.746,1.548-7.313,2.793-8.444,5.426c0,0-2.271,5.867-0.79,17.858
				c0.409,3.313,1.521,22.5-1.502,28.017l0.056,1.52c19.74,15.373,36.438,12.798,36.438,12.798
				c-0.887-2.715-0.801-11.665-1.202-14.318c0.29-3.384,0.167-5.96,1.601-11.886C388.333,270.969,392.288,255.235,392.768,254.123z"
				/>
		</g>
		<g>
			<g>
				<path style="fill:#263238;" d="M398.759,224.107c0.917-8.539-5.306-6.438-4.493-17.356c0.896-12.02-10.532-15.03-10.532-15.03
					s-3.95-5.28-9.431-6.759c-7.02-1.894-24.944,2.729-20.828,17.922c2.454,9.058,0.951,8.688-0.409,12.475
					c-1.925,5.36,2.707,12.715-2.4,15.965c0,0,19.611-0.402,40.581,0.81C391.247,232.134,398.2,229.32,398.759,224.107z"/>
			</g>
			<g>
				<g>
					<g>
						<g>
							<path style="fill:#B97964;" d="M383.086,231.735c0,0-3.498,1.721-7.812,5.438c-0.899,0.774-1.888,1.444-2.936,2.001
								c-2.827,1.501-5.403,2.36-6.101,0.997c-0.155-0.299-0.275-0.624-0.363-0.964c-0.592-2.282-0.349-5.49,1.495-6.958
								c2.08-1.655,3.083-3.072,2.708-5.313c-0.197-1.27-0.657-2.582-1.194-3.856l2.402-1.442l8.56-8.639
								C378.866,218.296,378.577,228.604,383.086,231.735z"/>
						</g>
						<path style="opacity:0.2;" d="M370.147,227.428c2.354-1.398,4.937-3.822,4.628-6.591c-0.138-1.166-0.389-2.271-0.669-2.98
							l-4.782,6.331C369.717,225.209,369.86,225.883,370.147,227.428z"/>
						<path style="fill:#B97964;" d="M381.503,203.26c-0.806,8.795-0.961,12.525-5.5,17.137c-6.827,6.937-17.33,4.604-19.138-4.114
							c-1.628-7.846-0.036-20.911,8.598-24.607C373.971,188.033,382.309,194.465,381.503,203.26z"/>
						<path style="fill:#263238;" d="M370.112,206.123c-0.043,0.931-0.547,1.695-1.126,1.707c-0.578,0.012-1.012-0.733-0.969-1.663
							c0.043-0.931,0.547-1.695,1.125-1.707C369.721,204.448,370.155,205.192,370.112,206.123z"/>
						<path style="fill:#263238;" d="M361.438,206.097c-0.044,0.902-0.547,1.643-1.123,1.655c-0.577,0.012-1.009-0.709-0.965-1.611
							c0.044-0.902,0.547-1.642,1.123-1.654C361.05,204.474,361.482,205.195,361.438,206.097z"/>
						<path style="fill:#263238;" d="M371.947,202.882c-0.112,0.012-0.226-0.02-0.313-0.1c-1.355-1.255-2.881-0.814-2.898-0.809
							c-0.226,0.066-0.455-0.062-0.507-0.293c-0.051-0.23,0.092-0.472,0.321-0.542c0.08-0.023,1.995-0.578,3.676,0.979
							c0.168,0.155,0.171,0.43,0.008,0.614C372.155,202.819,372.052,202.87,371.947,202.882z"/>
						<path style="fill:#263238;" d="M358.521,201.683c-0.089-0.03-0.162-0.096-0.201-0.192c-0.08-0.199,0.018-0.452,0.218-0.565
							c2.01-1.13,3.5-0.271,3.563-0.233c0.177,0.105,0.22,0.355,0.095,0.558c-0.124,0.203-0.368,0.282-0.545,0.178
							c-0.058-0.035-1.225-0.681-2.823,0.218C358.725,201.705,358.615,201.715,358.521,201.683z"/>
						<path style="fill:#A24E3F;" d="M363.798,205.668c0,0-1.376,3.292-2.928,5.344c-0.271,0.359-0.103,0.882,0.319,1.038
							c1.086,0.4,2.357,0.038,2.357,0.038L363.798,205.668z"/>
					</g>
					<path style="fill:#263238;" d="M369.474,204.498l-2.019-0.477C367.455,204.021,368.559,205.527,369.474,204.498z"/>
					<path style="fill:#263238;" d="M360.681,204.507l-2.019-0.477C358.662,204.03,359.766,205.535,360.681,204.507z"/>
					<path style="fill:#263238;" d="M378.451,206.298c0,0-4.537-6.829-4.303-12.359c0,0-8.684-2.264-15.61,6.988
						c-1.103,1.474-1.761,3.932-2.749,6.051c0,0-1.658-16.734,13.192-18.106c14.826-1.37,17.74,19.474,10.507,26.488
						C379.488,215.359,381.26,210.571,378.451,206.298z"/>
					<path style="fill:#B97964;" d="M384.164,210.428c-1.039,1.804-2.727,2.936-4.275,3.325c-2.328,0.584-3.53-3.159-2.736-5.492
						c0.716-2.1,3.003-3.49,5.269-3.032C384.655,205.68,385.352,208.365,384.164,210.428z"/>
				</g>
				
					<path style="opacity:0.2;fill:none;stroke:#000000;stroke-width:0.5;stroke-linecap:round;stroke-linejoin:round;stroke-miterlimit:10;" d="
					M379.245,209.959c0.056-0.833,0.453-1.638,1.081-2.189c0.628-0.551,1.477-0.84,2.31-0.787"/>
				<path style="fill:none;stroke:#263238;stroke-width:0.5;stroke-linecap:round;stroke-linejoin:round;stroke-miterlimit:10;" d="
					M369.059,212.882c0,0-0.851,2.32-3.461,1.781"/>
			</g>
		</g>
		<g>
			<path style="fill:#B97964;" d="M347.382,308.89l-3.235,75.506l2.59,73.177l9.105,2.338c4.026-14.463,7.302-42.881,8.24-57.696
				c0.217-5.084-1.424-10.943-0.851-14.946c0.495-3.52,2.136-5.745,4.287-13.726c2.6-9.659,5.231-22.585,4.179-32.587
				c0,0,12.227-10.981,8.605-25.559L347.382,308.89z"/>
			<path style="opacity:0.2;" d="M344.147,384.396c0,0,3.55-3.377,10.078-2.391c6.528,0.985,9.622,2.628,9.622,2.628l1.769-4.929
				l-14.963-4.245l-6.506,3.22V384.396z"/>
			<g>
				<path d="M335.28,474.783c1.193-0.709,2.546-1.247,3.994-1.589l0,0c0,0,4.346-3.165,6.595-12.836l5.655-1.042
					c1.944-0.319,3.946,0.303,5.034,1.563c0.151,0.178,0.269,0.37,0.352,0.572c0.257,1.029,0.431,2.069,0.52,3.114
					c0.232,3.553,0.187,7.114-0.134,10.663h-1.057l-0.252-6.698c0-2.275-2.467,0.368-3.172,2.796
					c-0.705,2.427-2.165,5.084-8.743,5.084C336.505,476.435,333.317,476.181,335.28,474.783z"/>
				<path style="fill:#B97964;" d="M346.943,456.888c0,0-1.275,4.423-3.356,9.316c-0.856,2.521-2.343,4.894-4.38,6.99
					c0,0,4.917,0.725,7.098-1.754c2.182-2.478,5.269-11.019,10.253-10.511c-0.374-0.634-0.848-1.231-1.41-1.779
					C354.344,458.248,346.943,456.888,346.943,456.888z"/>
			</g>
		</g>
		<g>
			<path style="fill:#263238;" d="M344.147,308.604c-4.278,20.328-4.322,56.309-3.655,73.935c0,0,9.337-7.813,24.295-2.572
				s21.342,5.335,28.869,3.049s13.434-13.72,35.157-17.721c21.723-4.002,22.551,0.526,22.551,0.526s2.602-5.195-8.26-8.815
				c-10.861-3.62-23.872-16.058-30.16-23.966c-6.288-7.908-20.807-33.706-23.93-39.789c-3.293-6.414-2.404-12.173-2.404-12.173
				l-33.769-2.458C352.841,278.619,347.566,292.357,344.147,308.604z"/>
			<path style="fill:#263238;" d="M393.801,255.102l6.094-17.018c-4.513-4.579-16.279-7.226-16.279-7.226l-14.943,25.064
				l-6.775-23.223c-4.746,1.548-7.313,2.793-8.444,5.426c0,0-2.271,5.867-0.79,17.858c0.409,3.313,1.521,22.5-1.502,28.017
				l0.056,1.52c19.74,15.373,36.438,12.798,36.438,12.798c-0.887-2.715-0.69-12.131-1.092-14.784
				c0.29-3.384,0.057-5.493,1.491-11.419C388.333,270.969,393.321,256.213,393.801,255.102z"/>
			<polygon style="fill:#407BFF;" points="350.807,283.857 387.227,286.923 387.244,279.854 352.746,276.898 			"/>
		</g>
		<g>
			<path style="fill:#407BFF;" d="M431.176,346.212l-14.74,5.022c-2.327,0.793-4.855-0.451-5.648-2.777l-4.242-12.451
				c-0.793-2.326,0.451-4.855,2.777-5.648l14.74-5.022c2.327-0.793,4.855,0.451,5.648,2.777l4.242,12.451
				C434.746,342.891,433.503,345.42,431.176,346.212z"/>
			
				<path style="opacity:0.3;fill:none;stroke:#000000;stroke-width:0.5;stroke-linecap:round;stroke-linejoin:round;stroke-miterlimit:10;" d="
				M406.763,333.718c4.339,2.255,8.808,4.339,13.548,5.539c1.435,0.363,3.009,0.632,4.352,0.009
				c1.332-0.619,2.149-1.993,2.655-3.372c1.037-2.824,1.182-7.238,0.24-10.095"/>
			<path style="fill:none;stroke:#407BFF;stroke-miterlimit:10;" d="M392.675,233.504c-6.732,29.047,5.226,69.993,17.631,96.816"/>
		</g>
		<g>
			<g>
				<g>
					<g>
						<g>
							<g>
								<g>
									<path style="fill:#B97964;" d="M413.714,318.797c0,0-2.463,1.454-3.027,3.75c-0.564,2.297-1.625,3.98-1.926,5.717
										c-0.301,1.736,1.538,0.228,2.355-0.772c0.816-1,1.752-2.126,2.404-1.391c0.652,0.734,2.375,9.005,3.395,9.92
										c1.02,0.916,1.16-0.509,1.16-0.509s0.472,1.997,1.315,2.026c0.219,0.007,0.739-0.33,0.667-1.274
										c-0.164-2.124-0.736-6.563-0.736-6.563c0.028,0.256,1.126,5.684,1.396,6.476c0.354,1.035,1.048,1.342,1.641,1.118
										c0.844-0.32-0.288-7.097-0.136-7.416c0,0,0.521,3.924,1.608,4.344c1.086,0.42,0.893-2.068,0.306-4.229
										c-0.538-1.981-1.076-6.009-1.818-7.97c-0.915-2.417-2.072-3.833-4.49-3.989
										C415.409,317.877,413.714,318.797,413.714,318.797z"/>
								</g>
							</g>
						</g>
					</g>
				</g>
			</g>
		</g>
	</g>
</g>
</svg>
